<?xml version="1.0" encoding="utf-8"?>
<!-- Generator: Adobe Illustrator 21.0.0, SVG Export Plug-In . SVG Version: 6.00 Build 0)  -->
<svg version="1.1" id="Layer_1" xmlns="http://www.w3.org/2000/svg" xmlns:xlink="http://www.w3.org/1999/xlink" x="0px" y="0px"
	 viewBox="0 0 352.7 250.3" style="enable-background:new 0 0 352.7 250.3;" xml:space="preserve">
<style type="text/css">
	
		.st0{clip-path:url(#SVGID_2_);fill-rule:evenodd;clip-rule:evenodd;fill:#262120;stroke:#919395;stroke-width:0.5;stroke-miterlimit:10;}
	.st1{clip-path:url(#SVGID_2_);fill-rule:evenodd;clip-rule:evenodd;fill:#4E4949;stroke:#161111;stroke-miterlimit:10;}
	.st2{clip-path:url(#SVGID_2_);}
	.st3{fill:none;stroke:#FFFFFF;stroke-linecap:round;stroke-linejoin:round;}
	.st4{fill:none;stroke:#FFFFFF;stroke-linecap:round;stroke-linejoin:round;stroke-dasharray:1.0166,2.0333;}
	.st5{fill:none;stroke:#FFFFFF;stroke-linecap:round;stroke-linejoin:round;stroke-dasharray:0.9755,1.9511;}
	.st6{fill:#689562;}
	.st7{fill:#4E4949;stroke:#161111;stroke-miterlimit:10;}
	.st8{fill:none;stroke:#FFFFFF;stroke-linecap:round;stroke-linejoin:round;stroke-dasharray:0.9971,1.9943;}
	
		.st9{clip-path:url(#SVGID_2_);fill-rule:evenodd;clip-rule:evenodd;fill:none;stroke:#FFFFFF;stroke-linecap:round;stroke-linejoin:round;stroke-miterlimit:10;stroke-dasharray:1,2;}
	.st10{clip-path:url(#SVGID_2_);fill:#FFFFFF;}
	.st11{fill:#E1AF28;}
	.st12{fill:#262120;}
	.st13{fill:#FFFFFF;}
</style>
<g>
	<defs>
		<rect id="SVGID_1_" x="2.4" y="0.1" width="350.5" height="250.1"/>
	</defs>
	<clipPath id="SVGID_2_">
		<use xlink:href="#SVGID_1_"  style="overflow:visible;"/>
	</clipPath>
	<polygon id="Ucayali_3_" class="st0" points="286.3,-1.2 284.9,-1 284.2,-0.9 283.5,-0.5 282.8,0.1 281.5,1.6 280.9,2.3 278.5,3.6 
		277.8,4.1 276.5,5.5 275.8,6.1 274,7 273.4,7.7 272.4,9.1 272,9.5 271.1,10 270.7,10.4 270.4,10.8 270,11.7 269.7,12.1 269.1,12.6 
		266.9,13.2 264.6,14.3 264,14.7 263.5,15.5 263.2,16.3 262.7,17 261,17.6 259.8,18.6 259.1,18.9 258.6,18.9 258.3,18.8 258.1,18.6 
		257.7,18.4 257.2,18.5 257,18.7 256.8,19 256.5,19.2 255.9,19.4 254.5,19.4 248.3,19.4 242,19.4 235.7,19.4 229.4,19.3 227.6,19.3 
		227.9,18.6 228,18 227.9,17.3 228,16.6 228.2,16.2 228.7,15.6 228.8,15.1 228.7,14.8 228.4,14 228.3,13.6 227.6,12.2 225.1,10.7 
		224.7,9.3 225.1,8 225.2,7.3 225,6.6 224.1,5.5 223.7,4.9 223.6,4.1 223.7,3.1 223.6,2.8 223.4,2.5 223.1,2.4 222.7,2.5 222.3,2.5 
		221.7,2 220.7,1.2 220,0.8 219.3,0.7 217.2,0.8 215.6,0.6 214.9,0.4 213.5,-0.3 212,-0.7 211.4,-0.9 211.2,-0.9 210.9,-0.7 
		210.8,-0.6 210.6,-0.7 210.3,-0.9 210.1,-1 205.8,-1.9 191.7,-2 192.4,-3.1 194.3,-5 195.1,-6.1 195.7,-7.3 196.1,-7.8 196.5,-8.1 
		197,-8.2 197.6,-8.3 198,-8.6 198.2,-9 198.3,-10 199.9,-11.3 200.2,-11.7 200.5,-12.4 200.7,-13.5 200.3,-16.5 200.1,-17.1 
		199.1,-18.5 198.7,-19 197.4,-19.9 196.8,-20.3 194.1,-24.3 193.5,-25.8 193.1,-26.5 192.5,-27.1 191.8,-27.4 189.8,-27.9 
		189,-28.3 188.4,-28.9 186.9,-30.8 186.7,-31.4 186.7,-32.1 187,-33.7 187,-34.4 186.7,-35.1 186.2,-35.6 185.9,-35.7 185.2,-35.8 
		184.8,-35.9 184.5,-36.3 183.9,-37 183.5,-37.3 180.7,-38.9 180.2,-39.4 180,-40 179.8,-41.5 179.5,-42.4 178.5,-43.8 178,-44.6 
		177.9,-45.3 178.1,-46.6 178.1,-47.3 177.7,-48.1 176.6,-49.7 176.3,-50.5 175.7,-51.6 174.4,-52.3 172.9,-52.9 171.8,-53.7 
		171.6,-54.2 171.2,-55.9 171.3,-56.6 171.8,-56.6 173,-56.2 174.1,-56.9 174.5,-58.2 174.2,-59.6 173.1,-60.5 171.8,-60.9 
		170.7,-61.4 169.7,-62 165.1,-66.9 163.7,-67.7 163.4,-68.3 164.6,-68.8 164.6,-68.8 164.5,-68.9 164.2,-69.2 163.7,-69.6 
		163.3,-69.9 161.7,-70.7 155.9,-72.8 154.2,-73.3 153.2,-73.4 150.8,-73.4 149.2,-74 145.8,-76 144.4,-76.3 143.9,-76.2 143.4,-76 
		143,-75.5 142.7,-74.8 142.7,-74.1 142.8,-73.5 143.1,-73 143.4,-72.1 144.3,-67.3 144.3,-66 144.2,-63.8 144.7,-60.6 144.6,-57.4 
		144.5,-56.8 144.3,-56.3 144,-55.8 143.5,-55.4 142.9,-54.9 140.6,-53.7 139.7,-53.4 131.7,-52 128.9,-51.1 127.7,-50.5 
		125.7,-49.1 125,-48.7 124.1,-48.4 122.4,-48 118,-48 117.4,-48.3 116.9,-48.4 116.6,-48.4 116.1,-48 115.8,-47.3 115.6,-46.7 
		115.5,-46.2 115.4,-45.7 115.1,-45.2 114.7,-45 113.9,-44.9 113.5,-44.9 113.1,-44.9 112.5,-44.7 111.9,-44.2 111.4,-43.8 
		111,-43.1 110.9,-42.5 110.9,-41.7 111.3,-40.4 111.5,-39.9 112.1,-39 114,-36.8 114.2,-36.4 114.4,-35.8 114.2,-35.3 113.8,-35 
		113,-35 112.2,-35.3 111.7,-35.6 109.1,-37.8 108.7,-38.1 108.2,-38.3 107.6,-38.5 106.9,-38.4 106.3,-38.2 105.7,-37.6 
		105.4,-37.1 104.8,-36.4 104.2,-35.8 101.8,-34.2 100.6,-33.2 99.6,-32 98.1,-30.8 94.6,-29.2 94.7,-27.8 95.2,-26.7 96.8,-24.4 
		97.1,-23.7 97.2,-23.2 97.7,-16.9 97.8,-16.6 97.9,-16.4 98.1,-16.3 98.2,-16.2 98.5,-16 98.9,-15.9 99.2,-15.7 99.6,-15.4 
		99.9,-15 100.6,-13.6 100.8,-13.3 100.9,-12.5 100.9,-12.1 100.9,-11.6 100.8,-11.2 100.8,-10.7 100.8,-10 101.1,-8.9 101.3,-8.2 
		101.6,-7.8 101.8,-7.6 102.7,-6.9 103.3,-6.5 103.5,-6.2 105.1,-2.9 105.6,-2.4 106,-2.1 107.2,-2 108,-2.2 108.9,-2.6 109.3,-2.9 
		113.5,-6.4 113.9,-6.6 114.8,-6.7 115.6,-6.9 117.2,-7.5 118,-7.9 118.5,-8.3 119.2,-9.5 120.3,-10.7 120.5,-11 121.1,-12.4 
		121.4,-13.1 122.2,-14.2 122.4,-14.5 122.8,-15.6 123,-16 123.3,-16.5 124.2,-17.6 126.3,-20.8 127.5,-22.3 129.2,-24 130,-24.7 
		131.8,-25.5 132.2,-25.7 135.3,-28.3 135.8,-28.7 138.3,-29.7 139.4,-30 140.2,-30.1 143.4,-29.8 143.8,-29.8 144.2,-29.6 
		144.8,-29.2 145.1,-29 145.3,-28.8 145.5,-28.5 145.7,-28.1 145.9,-27.4 146.1,-26.6 146.1,-26.2 146.1,-25.9 146,-25.5 
		145.8,-25.1 145.2,-24.7 143.2,-23.7 142.9,-23.4 142.6,-23.2 142.5,-22.8 142.4,-22.4 142.2,-18.9 141.9,-17.7 141,-15.7 
		140.4,-14.8 140.3,-14.5 140.2,-14.1 140.1,-13.7 140.1,-13.2 140.5,-11.7 140.5,-11.2 140.5,-10.4 140.1,-8.7 139.1,-5.7 
		138.7,-4.2 138.7,-3.9 138.7,-3.6 138.8,-3.1 139.4,-1.7 139.9,-0.9 140.5,-0.2 145.1,6.6 146,7.7 146.4,8.3 147.2,10 148.6,13.7 
		148.8,14.9 148.6,16.2 148.6,17.5 149.2,19.1 150.9,22.2 151.3,23.2 151.4,24.1 150.9,29.3 150.9,29.9 151.1,30.4 152.2,33.2 
		152.5,33.7 153.1,35.2 153.5,36.9 153.6,37.1 153.8,37.3 154.2,37.5 156.7,38.4 157.3,38.7 157.6,39.1 158,39.5 158.2,39.9 
		158.2,40.4 157.9,40.7 157.5,40.9 155.9,41.5 154.4,42.3 153.8,42.8 152.3,44.3 151.5,45 149.5,47.1 147.6,48.7 146.2,49.5 
		146.8,52.9 147.2,54.2 147.4,54.6 148.3,56.1 148.8,56.4 149.5,56.7 150.5,56.7 152,56.4 152.6,56 153.1,55.7 153.7,55.4 
		154.3,55.3 156.3,55.4 157.1,55.3 157.7,55.2 158.3,54.8 160.2,54.3 160.7,54.2 161.3,54.2 162.4,54.1 162.9,53.9 163.4,53.9 
		165,54.1 166.1,54 166.6,53.9 167.1,53.6 167.6,53.2 168.1,52.8 170.7,49.1 172.1,46.6 172.5,46.2 173,46.3 173.8,46.7 174.6,46.9 
		176.2,47.3 176.6,47.4 176.9,47.6 177.5,48 178,48.5 179.3,50.1 180.6,52.3 181.8,54.9 181.8,55.1 181.8,56.4 181.1,61.2 
		181.1,61.5 181.2,61.9 181.9,64.1 182.4,65.1 183.2,66.1 183.9,66.6 185,66.8 186.5,66.3 187.5,66.1 190,66.1 194.5,65.5 
		195.9,65.2 197,64.7 197.4,64.5 197.6,64.3 198.9,62.5 199.2,62.2 199.6,62.1 199.9,62.4 200.1,62.7 200.2,63.1 200.3,63.5 
		200.5,63.8 200.7,64.1 201.1,64.7 201.3,64.9 201.4,65.7 201.5,66 202.4,66.7 203.9,67.2 204.2,67.3 205,68.1 205.5,68.2 
		206.6,68.1 207,68.2 207.4,68.2 207.7,68 208.1,67.8 208.4,67.6 209.1,67.5 209.5,67.7 209.6,68 209.7,68.4 209.9,68.7 210.2,68.9 
		210.6,68.9 210.9,69.1 211.8,69.7 212.1,69.9 212.6,70 214.1,70.3 215.3,70.2 215.7,70 216,69.7 216.2,69.5 216.6,69.3 216.9,69.1 
		217.7,68.7 218.1,68.5 219.4,67.3 220,66.8 221.3,66.3 223.8,65.6 224,65.5 224.3,65.5 225,66 225.4,66.2 225.8,66.2 226.7,65.9 
		227.2,65.9 227.5,65.9 228.1,66.2 228.1,66.1 228.1,65.3 228.2,64.3 228.4,63.5 228.8,62.6 231.4,58 231.5,57.4 231.5,57 
		231.3,56.3 229.3,53.9 229.3,53.5 229.3,53.2 229.7,52.8 230.3,52.5 231.6,52.6 232.3,52.8 233,53.1 234.4,54.2 234.7,54.4 
		235.6,54.6 240.5,54.4 241.3,54.2 241.6,54.1 257.3,45.9 260.3,45 261,44.7 262.4,43.9 264.4,42.2 266.2,41.1 268.4,39.3 269,38.9 
		269.8,38.2 273.2,34.2 274.3,32.5 274.7,31.3 275,30.1 275.4,25.2 275.5,24.4 276,22.8 276.6,22.1 277.7,21 282.3,17.6 282.3,17.6 
		282.4,16 282.4,13.9 282.7,12.4 282.9,12 283.2,11.7 283.5,11.5 283.9,11.3 284.1,11.3 284.4,11.5 284.6,11.5 284.8,11.3 
		284.9,10.8 285,10.6 285.4,10 285.7,9.4 285.8,8.7 285.5,8 285.1,7.5 284.1,6.7 283.7,6.1 283.5,5.5 283.2,4.3 282.8,3.6 283,3.6 
		284,3.6 284.1,3.6 284.6,3.7 285,3.6 284.5,2.8 284.5,2.3 284.8,2 285.3,1.9 285.2,1.7 285.1,1.5 285,1.4 285.7,1.1 285.9,0.6 
		286,0 286.3,-0.6 286.4,-0.7 	"/>
	<polygon id="Puno_3_" class="st0" points="345.5,247 344.7,246.5 342.9,245.7 341.4,244.1 340.6,243.6 339.7,244 338.5,243.6 
		338.1,243.6 337.7,243.7 337.1,244.3 336.7,244.4 335.8,244.4 334.9,244.1 334.2,243.7 333.5,243.1 332.3,241.6 331.5,239.6 
		330,235.8 328.5,232 327,228.2 325.5,224.5 325.1,223.4 324.9,222.3 325.2,221.2 327.5,217.7 327.7,217 327.7,216.3 327.9,215.6 
		328.4,214.9 328.7,214.7 329.7,214.4 330,214.2 330,213.9 329.6,212.8 329.8,212.2 330.3,211.5 331,210.9 332.2,210.5 332.7,209 
		333.3,209 334.2,209.1 334.7,208.6 334.8,207.9 334,207.1 333.1,205.9 332.5,205.3 330.4,203.7 329.9,203.2 327.8,200 327.2,199.5 
		326.5,198.8 326.3,198.1 326.4,197.5 327,196.1 327.1,195.8 326.9,192.8 327,192.2 327.3,191.7 328.1,191.2 330,190.7 330.6,190.4 
		331.1,189.3 331.3,184.6 331.8,183.9 332.4,183.9 333.2,184 334,184.1 334.2,183.7 334.1,182 334.2,181.4 334.4,181.2 335,181 
		335.3,180.9 336.7,179.3 337.4,178.8 339.7,177.5 340.4,176.8 340.2,176.1 339.7,175.4 339.4,174.7 339.4,173.3 339.5,172.6 
		339.7,172 340.5,171.4 341.7,171.1 344.1,170.8 344.8,170 344.6,168.8 343.8,166.3 343.5,165.1 343.3,164.5 343,164 341.1,162.7 
		340.6,162.1 340.4,160.9 340.4,159.6 340.3,158.4 339.7,157.4 339.2,156.1 339.2,155.6 339.3,155 339.5,154.6 339.5,154.1 
		339.1,153.6 337.2,152 336.4,151 336.9,150.2 337.4,150.1 338.5,150.3 338.9,150.3 339.2,149.9 339.2,149.4 339.1,149 339.2,148.5 
		339.5,148.1 340.2,147.3 340.5,146.8 340.8,145.9 341,145 340.9,144.2 341.3,137.1 340.8,134.3 340.7,132.8 341,128.6 340.9,128 
		340.9,128.1 318.7,139.3 318.1,139.4 317.2,139.2 293.5,127.4 292.9,127.3 292.3,127.8 291.4,131.8 291.3,133.1 291.8,135.3 
		291.8,135.7 291.8,136.1 291.5,137.1 290.7,139.1 290.1,139.9 288,142.1 287,143 286.3,143.8 285.8,144.5 284.7,146.4 281.4,154.4 
		280.8,155.4 280.4,155.7 279.4,156 276.6,156.5 276.1,156.8 275.7,158.6 275.6,160.5 274.9,163.5 275.1,164 275.5,164.5 276,164.9 
		276.3,165.7 276.4,166.5 275.6,171.3 275.3,172.2 274.7,173.5 273.5,178 273.3,178.3 273.2,178.5 272.8,178.8 271,178.7 
		270.7,178.9 270.4,179.2 269.7,180.9 269.5,181.9 269.7,182.5 270,183.2 270.1,183.6 270,183.9 269.8,184.2 269.4,184.5 
		269.2,184.7 268.5,185.3 268.1,185.8 267.7,186.1 267.4,186.4 267,186.4 266.1,186.5 265.4,186.7 265.2,187.2 265.2,187.5 
		265.3,187.9 265.5,188.2 266.3,189.4 266.9,190.1 267.2,190.4 267.6,190.6 267.9,190.6 268.4,190.6 268.9,190.6 269.6,191 
		269.9,191.4 270,191.9 269.6,193.5 269.6,194 269.7,194.7 270.1,195.9 270.2,196.6 270.2,197.1 269.4,198.4 269.1,199 269.1,200.1 
		269.6,200.9 269.6,201.1 269.6,201.2 269.4,201.8 269.3,202.3 269.2,203.1 269.3,203.6 269.4,204 269.6,204.3 269.9,204.9 
		270.2,205.8 270.5,207.1 270.4,210 270.3,210.5 270.1,210.9 269.8,211 269.3,211.2 269,211.3 268.6,211.6 268.8,212.8 268.5,215.2 
		268.6,215.8 268.7,216.2 269,216.5 269.2,217 269.3,217.4 269.3,217.6 269.2,218.1 269.1,219.3 269.1,219.8 269.3,220.1 
		270.4,221.6 270.9,222.1 272.3,223.3 272.6,223.6 273,224.3 273.1,224.7 273,225.2 272.9,225.6 272,227.1 271.9,227.4 271.8,227.7 
		271.8,228.1 272,228.5 272.2,228.8 272.5,229.1 272.8,229.6 273.4,230.9 273.7,231.5 275.2,232.6 275.4,233.5 275.2,234.4 
		274.9,235.5 275.7,235.4 276.4,235.7 276.7,235.9 276.8,236 278.8,237.4 279.7,237.8 280.7,238 281.3,238 282.4,237.6 282.8,237.3 
		283.3,237 283.7,236.8 284.8,236.4 287.1,237.7 288.4,237.9 289,237.8 289.7,237.8 290.2,238 290.5,238.4 290.8,238.9 290.9,239.5 
		290.9,240.6 290.8,241.8 291,242.5 291.4,243 292.8,243.8 293.1,244.3 293.2,244.7 293.2,245.1 292.7,246.4 292.5,247.2 
		292.4,247.9 292.5,248.2 293,249.6 293.6,251.8 294.1,253 294.6,253.5 296.1,254.4 296.4,254.7 296.7,255 297.2,255.9 297.8,256.8 
		299.6,258.7 300.2,259.2 300.7,259.5 301.1,259.7 303.3,260 304.1,261.3 303.8,261.9 302.4,263 301.5,264 301.2,264.2 300.8,264.4 
		299.7,264.5 299.3,264.7 298.9,264.9 298.6,265.3 298.5,265.6 298.4,266.6 298.4,266.9 298.5,267.4 298.6,267.9 299.2,269.5 
		301.5,273 303.4,276.6 304.2,277.8 304.5,277.9 304.8,278 304.9,278 304.9,278 305,278 305.2,278.1 306,278.7 307.2,279.8 
		307.9,280.4 308.1,280.5 308.4,280.5 308.6,280.6 308.9,280.7 309.2,280.9 310.3,281.6 310.6,281.8 310.8,281.8 311,281.8 
		311.5,281.6 311.8,281.5 312,281.4 312.2,281.4 312.6,281.5 312.8,281.6 312.9,281.7 313.2,282.4 313.4,282.7 313.9,283.4 
		314.2,283.6 314.5,283.7 314.7,283.7 314.9,283.7 316.1,283.5 316.5,283.3 316.6,283.3 316.6,283.3 317.2,282.3 317.7,280.3 
		318.1,279.5 318.3,279.4 318.9,279.3 319.1,279.3 321,277.5 322.1,276.8 323,276.4 324,276.2 325,275.9 325.7,275 325.9,274.4 
		325.7,274.2 325.5,274.1 325.4,273.8 325.5,273.5 325.7,273.2 327.2,272.3 327.6,271.8 328.5,269.8 332.1,266 332.6,265.2 
		333.3,263.2 333.6,262.7 334.2,262.3 335.4,262.2 336.1,262.1 338.1,261 338.7,260.5 339.3,259.8 339.7,259.2 338.8,257.9 
		338.6,257.3 338.7,256.1 338.6,254 338.7,253.2 339,252.6 340,251.5 341.1,250.9 345.1,249.3 345.9,248 	"/>
	<polygon id="Pasco_3_" class="st0" points="158,39.5 157.6,39.1 157.3,38.7 156.7,38.4 154.2,37.5 153.8,37.3 153.6,37.1 
		153.5,36.9 153.1,35.2 152.5,33.7 152.2,33.2 151.1,30.4 150.9,29.9 150.9,29.3 151.4,24.1 151.3,23.2 150.9,22.2 149.2,19.1 
		148.6,17.5 148.6,16.2 148.8,14.9 148.6,13.7 147.2,10 146.4,8.3 146,7.7 145.1,6.6 137.2,10.4 129.7,11.7 129.5,11.7 125.3,11.1 
		124.7,11.1 124.2,11.1 117.5,14.4 116.4,14.7 113.7,15.3 111.5,15.5 107.2,15.3 104.6,15.6 104,15.7 103.1,16 102.6,16.3 101.5,17 
		100.7,17.7 100.3,18.4 100,19.2 99.7,20.9 99.7,21.8 99.7,22.6 101,29.1 101.8,30.9 101.5,31.5 100.5,32.2 95.6,34.4 94.1,33.3 
		92.5,32.6 85.6,32.2 85.3,32.1 85,31.9 84.8,31.8 84.3,31 84,30.5 83.6,30 83.4,29.7 82.7,29.3 81.4,28.7 79.9,28.5 75.6,28.5 
		73.7,28.9 73.2,29.1 72.9,29.5 70.6,32.7 69.7,33.4 67.3,35 68.2,36.5 68.5,37.2 69.1,40 69.4,40.6 70.4,42.3 70.6,42.9 70.8,43.4 
		71.2,45.7 72,46.8 73,48 73.5,48.8 73.7,51.9 73.6,53.9 73.7,54.4 73.8,54.7 74,55 75.7,56.1 76.2,56.6 76.5,57.5 76.6,58 
		76.5,58.4 78.5,58.6 79.3,58.6 83.9,57.9 84.2,56.5 84.2,56 83.9,54.7 83.8,52.8 83.9,51.9 84,51.5 84.2,51.5 84.4,51.6 84.6,51.6 
		84.9,51.7 85.2,51.9 86.7,52.1 87.5,52.1 88.4,51.9 89.3,51.5 91.6,49.7 92.1,49.5 92.4,49.6 92.6,49.9 93,50.5 93.2,50.7 
		93.5,50.9 93.7,50.9 93.9,51 102.3,50.8 110.2,48.3 113.2,47.5 116.6,47.5 117.9,47.3 119.1,46.7 124.5,45.3 125,45.1 125.5,44.5 
		125.9,44.2 126.7,43.7 127.3,43.6 128,43.5 128.5,43.6 128.9,43.7 130.2,44.4 132.1,45.5 134.6,47.6 135.2,47.9 136.6,48.6 
		140,49.6 146.2,49.5 147.6,48.7 149.5,47.1 151.5,45 152.3,44.3 153.8,42.8 154.4,42.3 155.9,41.5 157.5,40.9 157.9,40.7 
		158.2,40.4 158.2,39.9 	"/>
	<polygon id="Moquegua_3_" class="st0" points="303.3,260 301.1,259.7 300.7,259.5 300.2,259.2 299.6,258.7 297.8,256.8 
		297.2,255.9 296.7,255 296.4,254.7 296.1,254.4 294.6,253.5 294.1,253 293.6,251.8 293,249.6 292.5,248.2 292.4,247.9 292.5,247.2 
		292.7,246.4 293.2,245.1 293.2,244.7 293.1,244.3 292.8,243.8 291.4,243 291,242.5 290.8,241.8 290.9,240.6 290.9,239.5 
		290.8,238.9 290.5,238.4 290.2,238 289.7,237.8 289,237.8 288.4,237.9 287.1,237.7 284.8,236.4 283.7,236.8 283.3,237 282.8,237.3 
		282.4,237.6 281.3,238 280.7,238 279.7,237.8 278.8,237.4 276.8,236 276.7,235.9 276.4,235.7 275.7,235.4 274.9,235.5 274.4,243.5 
		274,245.6 273.1,246.7 271.6,248.3 271.3,248.6 271.1,249.1 270.9,249.5 270.9,249.8 270.9,250.1 271.2,251.3 271.3,251.8 
		271.3,252.5 271.1,252.9 270.8,253.2 269.5,253.7 269.3,253.8 269,253.7 268.8,253.5 268.3,253 268,252.8 267.7,252.7 267.3,252.8 
		266.6,253 266.1,253.1 265,253.1 264.6,253.2 262.8,254 262.4,254.2 261.8,254.8 260.2,257.3 259.1,258.5 258.8,258.9 258.7,259.3 
		259,261 259,261.4 258.9,262.5 258.8,262.9 258.6,263.2 258.3,263.4 257.1,263.8 256.3,264.2 254.5,265.9 254.2,266.3 253.9,266.9 
		253.8,267.4 253.8,267.7 253.9,268.5 254.1,269.3 254.8,270.7 255.3,271.9 257.4,273.6 257.7,273.9 258,274.3 257.8,274.6 
		257.6,274.9 257.5,275.2 256.6,278.5 256.5,278.8 256.4,279.1 255.4,280.3 255,281 254.7,282.2 254.3,282.8 253.7,283.4 
		252.4,284.4 252.4,284.4 252.6,284.8 252.7,284.9 253.9,285.7 254.9,287 255.2,287.2 255.4,287.3 255.5,287.4 255.7,288.7 
		256.2,290.1 256.3,290.8 256.7,294.5 256.9,295.3 257,296 256.8,296.9 256.3,297.6 256.1,298 256.1,298.4 256.3,298.3 257.4,298.1 
		258.2,298.3 258.9,298.7 260.2,299.6 261.9,300.4 262.5,300.8 263.4,301.9 263.4,301.9 263.9,301.3 264.4,300.2 264.6,299.9 
		264.8,299.6 265.2,299.2 266.5,298.2 267.9,297.4 271,296.1 271.4,295.9 272,295.6 272.3,295.4 272.5,295 273.2,293.2 273.4,292.8 
		273.8,292.4 275.2,291 275.4,290.8 275.7,290.3 276.2,289.6 276.4,289 276.5,288.5 276.9,286.8 277,286.4 278.5,284.6 279.2,283.6 
		279.5,282.8 279.9,282.2 280.2,281.8 280.7,281.5 281.3,281.2 282.1,280.9 283.8,280.2 286.7,276.9 287.7,275.5 288,274.9 
		288.1,274.4 288.1,273.9 288,273.4 287.7,272.7 287.7,272.6 287.7,272.5 287.5,271.6 287.6,270.9 287.8,270.3 288.2,269.3 
		288.3,268.8 288.4,268.3 288.5,267.9 288.8,267.5 289.6,266.6 290.5,266.1 291,265.9 291.6,265.9 292.3,266 293.1,266.4 
		293.5,266.7 293.8,267.1 294.7,269.3 295,269.7 295.3,270.1 295.8,270.3 296.4,270.4 296.9,270.4 297.8,269.8 298.6,267.9 
		298.5,267.4 298.4,266.9 298.4,266.6 298.5,265.6 298.6,265.3 298.9,264.9 299.3,264.7 299.7,264.5 300.8,264.4 301.2,264.2 
		301.5,264 302.4,263 303.8,261.9 304.1,261.3 	"/>
	<polygon id="Madre_de_Dios_3_" class="st0" points="350.9,108.6 350.1,107.1 346.4,100.5 342.7,94 339.1,87.5 335.4,81 331.7,74.5 
		328,68 324.4,61.5 320.7,55 320.6,54.8 320.4,54.6 320.3,54.3 320.2,54.1 320.1,53.9 319.9,53.7 319.8,53.4 319.7,53.2 319,53.2 
		314.7,53.7 313.5,53.4 312.2,52.6 311.6,52.3 310.6,52.3 309.2,52.4 308.5,52.3 307.8,52.1 306.4,52 297.8,56.4 296.4,56.9 
		294.6,57.3 292.8,57.3 291.1,57.1 289.4,56.3 288.5,55.4 287,53.5 286,52.7 285.3,52.9 282.3,55.3 282.3,52.4 282.3,47.9 
		282.3,43.3 282.3,38.7 282.3,34.2 282.3,29.6 282.3,25.1 282.3,20.5 282.3,17.6 282.3,17.6 277.7,21 276.6,22.1 276,22.8 
		275.5,24.4 275.4,25.2 275,30.1 274.7,31.3 274.3,32.5 273.2,34.2 269.8,38.2 269,38.9 268.4,39.3 266.2,41.1 264.4,42.2 
		262.4,43.9 261,44.7 260.3,45 257.3,45.9 241.6,54.1 241.3,54.2 240.5,54.4 235.6,54.6 234.7,54.4 234.4,54.2 233,53.1 232.3,52.8 
		231.6,52.6 230.3,52.5 229.7,52.8 229.3,53.2 229.3,53.5 229.3,53.9 231.3,56.3 231.5,57 231.5,57.4 231.4,58 228.8,62.6 
		228.4,63.5 228.2,64.3 228.1,65.3 228.1,66.1 228.1,66.2 227.9,68.4 227.3,70.2 222.8,78.9 222.1,80.8 222,82.2 221.5,84.5 
		221.2,85.5 220.9,86.8 220.9,87.3 221.5,90.4 221.7,90.7 221.7,90.9 221.9,91 222.5,91.7 225.4,93.5 227.9,94.7 228.4,95.1 
		228.7,95.7 229.1,96.4 230,100.2 230.4,100.7 230.7,101.2 231.1,101.6 232.1,102 233.2,102.2 233.7,102.2 234.2,102.4 234.5,102.5 
		234.9,102.7 235.3,103.2 235.6,103.7 236.4,105.3 237.5,108.1 238,109.8 238.3,110.9 238.3,111.8 237.7,113.3 237.5,114 
		237.5,114.9 237.8,115.5 238.1,116.1 239,117.9 239.5,118.8 240.6,119.6 241.5,120 248.1,122.1 248.9,122.2 249.5,122.2 251.4,122 
		252.1,122 252.5,122.2 252.9,122.4 253.8,123 254.4,123.3 258.1,124.8 263.5,126.3 264,126.5 268.4,129.4 269,129.6 270.1,129.7 
		271.1,129.6 280.9,131.4 285.3,131.1 286,130.9 286.5,130.5 286.5,130.1 286.2,129.7 285.3,129.1 284.9,128.8 284.5,128.4 
		284.3,128 284.5,127.4 284.9,127.3 285.4,127.2 286.5,127.2 288.1,127.6 290,127.4 291.1,127.5 292.3,127.8 292.9,127.3 
		293.5,127.4 317.2,139.2 318.1,139.4 318.7,139.3 340.9,128.1 340.9,128 340.5,124.5 340.5,122.9 340.7,122.1 341.8,121.3 
		342.2,120.4 342.6,119.7 343.4,119.8 343.8,118.8 344.4,118.1 345.1,117.6 348,116.8 348.2,116.4 349.1,114.8 348.7,114.4 
		347.6,114.1 347.2,113.8 347.3,113.2 347.6,112.7 348.1,112.3 349.2,111.7 349.7,111.2 350.1,110.7 350.3,110.2 350.6,109.4 
		350.8,109.1 351.1,108.9 	"/>
	<polygon id="Junín_3_" class="st0" points="175.6,77.5 176.8,76.7 180,74 182.1,71 183.6,67.6 183.9,66.6 183.2,66.1 182.4,65.1 
		181.9,64.1 181.2,61.9 181.1,61.5 181.1,61.2 181.8,56.4 181.8,55.1 181.8,54.9 180.6,52.3 179.3,50.1 178,48.5 177.5,48 
		176.9,47.6 176.6,47.4 176.2,47.3 174.6,46.9 173.8,46.7 173,46.3 172.5,46.2 172.1,46.6 170.7,49.1 168.1,52.8 167.6,53.2 
		167.1,53.6 166.6,53.9 166.1,54 165,54.1 163.4,53.9 162.9,53.9 162.4,54.1 161.3,54.2 160.7,54.2 160.2,54.3 158.3,54.8 
		157.7,55.2 157.1,55.3 156.3,55.4 154.3,55.3 153.7,55.4 153.1,55.7 152.6,56 152,56.4 150.5,56.7 149.5,56.7 148.8,56.4 
		148.3,56.1 147.4,54.6 147.2,54.2 146.8,52.9 146.2,49.5 140,49.6 136.6,48.6 135.2,47.9 134.6,47.6 132.1,45.5 130.2,44.4 
		128.9,43.7 128.5,43.6 128,43.5 127.3,43.6 126.7,43.7 125.9,44.2 125.5,44.5 125,45.1 124.5,45.3 119.1,46.7 117.9,47.3 
		116.6,47.5 113.2,47.5 110.2,48.3 102.3,50.8 93.9,51 93.7,50.9 93.5,50.9 93.2,50.7 93,50.5 92.6,49.9 92.4,49.6 92.1,49.5 
		91.6,49.7 89.3,51.5 88.4,51.9 87.5,52.1 86.7,52.1 85.2,51.9 84.9,51.7 84.6,51.6 84.4,51.6 84.2,51.5 84,51.5 83.9,51.9 
		83.8,52.8 83.9,54.7 84.2,56 84.2,56.5 83.9,57.9 79.3,58.6 78.5,58.6 76.5,58.4 76.3,60.9 76.6,64.6 76.9,66.1 78.7,67.9 
		79.1,68.6 79.2,69.4 80.4,73 80.9,73.8 81.2,74.3 81.6,74.6 82.5,75.1 82.8,75.4 83.2,75.9 83.5,75.9 84.1,75.5 84.5,75.4 
		85.3,75.7 85.7,76 85.9,76.3 85.9,76.7 85.9,78.3 86.2,79.9 86.3,81.4 86.4,81.9 86.6,82.3 88.2,83.8 88.5,84.3 88.7,85.4 
		88.9,85.7 89.2,86 89.9,86.4 91.1,87.4 92.4,90.5 92.7,90.9 93.2,91.4 93.6,91.4 94.2,91.3 95.9,90.5 96.4,90.4 97.1,90.3 
		97.6,90.4 100.4,91.7 100.7,91.9 101,92.1 101.9,92.7 104.6,93.7 106.3,95.1 106.5,95.4 106.7,96 106,97.3 106.1,98 106.6,98.7 
		109.1,104 109.5,104.5 109.9,105.9 109.6,109 109.4,109.8 108.9,111.1 108.6,112.2 108.7,112.8 108.9,113.2 109.1,113.4 
		110.5,114.1 112.4,115.6 112.4,115.2 112.6,114.5 112.7,114.1 112.9,113.8 113.3,113.6 113.6,113.5 114,113.3 114.2,113.1 
		114.5,112.5 114.8,111.6 115,111.2 115.4,110.8 118,108.1 118.5,107.7 119.1,107.5 119.6,107.4 120,107.3 120.4,106.9 121.4,105.3 
		122.3,104.8 124.5,104.3 124.2,104.2 124.1,104.2 124,104 123.8,103.6 123.7,103.5 123.6,102.6 123.2,101.9 123.1,101.8 
		123.1,101.4 123.2,101.3 123.3,101.3 123.9,101.2 124.6,100.9 125,100.6 125.3,100.3 125.5,100 126.7,97.6 126.8,97.3 126.8,96.8 
		126.6,96 126.5,95.6 126.4,95.3 126.1,95 125.3,94.3 124.9,93.8 124.7,93.4 124.6,93.1 124.6,92.7 124.7,92.4 124.9,92.2 
		125.7,91.5 125.9,91.2 126.1,90.9 126.3,90.5 126.5,90.2 126.7,90.1 127.1,90.2 127.3,90.4 128,91.4 128.2,91.6 128.5,91.8 
		128.7,92 129.2,92.2 129.9,92.4 130.4,92.5 131,92.5 131.9,92.4 133.2,91.9 133.7,91.9 134.2,92 134.6,92.2 135.1,92.3 135.7,92.3 
		136.5,92.3 138.2,91.8 138.5,91.7 138.6,91.5 138.8,91 139,90.7 139.3,90.4 139.4,90.3 139.6,90.2 139.8,90.2 140.2,90.2 
		141.6,90.6 142.5,90.7 143.1,91 144.7,92.2 145.8,92.2 146,92.2 146.3,92.5 148.6,94.7 150.4,96.1 151.1,96.9 151.2,97.1 
		151.4,97.6 151.6,98.2 151.7,98.4 151.8,98.5 151.9,98.7 152.1,98.8 153.3,99.2 153.7,99.4 154,99.6 154.7,100.4 155.2,100.8 
		155.7,101.3 156,101.5 156.4,101.7 157.9,102.1 158.2,102.2 158.5,102.1 159.1,101.9 159.7,101.6 160.5,100.7 161,100.4 
		161.3,100.3 161.6,100.2 161.9,100.3 162.5,100.4 163,100.7 163.1,100.8 163.4,101 163.9,101 165.4,100.8 169,100.8 170.2,100.6 
		174.4,99.5 175.5,99 175.8,98.8 176.1,98.6 176.6,98.1 176.8,97.8 177.4,96.5 177.7,95.7 177.8,94.9 177.9,94.2 177.8,92.6 
		177.8,92.3 178,91.5 178.1,91.2 181.5,86.1 181.6,85.8 182.1,82.7 182.1,82.1 182.1,81.7 182,81.4 181.8,81.1 181.7,80.9 
		180.7,80.2 180.1,79.8 179.8,79.6 178.7,79.4 177.4,78.8 177,78.6 176.6,78.6 175.8,78.6 175.5,78.6 175.2,78.4 175.2,78 
		175.3,77.7 	"/>
	<path id="Ica_3_" class="st0" d="M139.7,196.4l-0.1-0.4l-0.2-0.4l-0.6-0.9l-0.5-1l-0.7-0.8l-0.3-1.1l-0.1-1.1l-0.1-0.7l-0.2-0.5
		l-0.2-0.3l-0.3-0.2l-1.5-1.1l-0.3-0.3l-0.3-0.5l0-0.5l0.2-1l-0.1-0.3l-0.2-0.3l-0.3-0.3l-0.3-0.3l-0.4-0.6l-0.3-0.4l-0.3-0.3
		l-0.4-0.1l-0.4,0l-0.3,0.1l-0.3,0.2l-0.8,1.2l-0.3,0.2l-0.3,0.2l-0.3,0.1l-1.8,0.3l-0.3-0.1l-0.1-0.3l-0.1-0.9l-0.4-1.5l0.7-1.5
		l0-0.4l-0.1-0.4l-0.3-0.6l-0.2-0.3l-0.3-0.2l-1.5-1l-0.3-0.3l-0.3-0.4l0.3-0.7l0.3-0.6l0.4-0.5l1.3-2.6l0.2-0.7l-0.2-0.6l-0.6-1.4
		l0-0.6l0.1-0.6l0.2-0.4l0.4-0.6l-0.7-0.9l-0.7-0.6l-0.6-0.4l-0.5-0.2l-0.4-0.1l-1,0l-1-0.2l-1.6-1.7l-1.9-1.3l-0.6-0.6l-0.5-0.3
		l-0.3-0.1l-1.3-0.1l-0.5-0.1l-0.7-0.3l-0.5-0.3l-0.6-0.5l-0.4-0.2l-2-0.8l-0.4-0.4l-0.3-0.4l-0.3-0.7l-0.1-0.3l0.1-0.3l0.3-0.6
		l0.1-0.3l-0.1-0.3l-0.5-0.9l-0.1-0.4l-0.1-0.3l0.1-0.5l0.5-0.6l1.1-2.1l0-0.5l-0.1-0.4l-0.3-0.7l-0.7-1.7l0.4-0.6l0.5-0.5l0.4-0.6
		l1-2.6l-0.2-0.4l-0.3-0.2L111,143l-1.3-0.1l-0.8-0.2l-1.8-0.8l-1.2-0.3l-0.7-0.1l-0.7,0l-2.4,0.1l-1-0.2l-0.2-0.2l-0.2-0.3l0-0.4
		l0.1-0.4l0.1-0.4l0.4-0.6l0.6-0.9l0.2-0.3l0.1-0.4l0.1-0.9l0.1-0.4l0.2-0.3l0.3-0.2l0.7-0.3l0.3-0.3l0.2-0.4l0.2-0.8l0-0.6l0-0.5
		l-0.5-2l0-0.5l0.2-0.4l0.3-0.2l1.3-0.6l0.4-0.3l0.3-0.4l0.4-0.8l0.2-0.5l0.1-0.2l0-0.1l-0.1-0.2l-0.2-0.4l-0.9,0.4l-1,0.6l-0.5,0.2
		l-3.3,0.5l-2.4,0.1l-0.8-0.2l-1.7-0.8l-0.1-0.1l-0.1,0l-0.1,0l-0.2,0l-0.3,0.2l-0.3,0.4l-0.5,1.2l-0.2,0.4l-0.3,0.4l-5,4.1
		l-0.3,0.4l-1.3,2.5l-0.6,0.8l-1.7,1.2l1,1.3l0.9,2.6l0.3,1.3l0.2,2.7l-0.6,3l-0.4,1.1l-0.4,1.2l-0.1,1l0,0.7l-0.3,1.1l-0.5,1.6
		l-0.2,0.8l0,0.8l-0.3,0.4l-0.7-0.5l-0.5-0.2L83,157l0.1-0.5l0.4-0.5l-0.2-0.4l-0.4-0.1l-0.6,0l-0.6,0.5l-0.6-0.1l-0.3,0.3l0.2,0.5
		l-0.4,0.5l-0.5,1.2l-0.1,0.5l0,0.9l0.7,0l0.7,0.4l0.6-0.1l0.4,0.2l0.2-0.3l0.1-0.6l0.2-0.2l0.4,0.1l0.2,0.2l0,0.3l-0.1,0.3l0,0.3
		l0.1,0.4l0.6,0.4l0.2,0.6l-0.1,0.9l-0.4,0.2l0.2,0.6l0.3,0.4l-0.1,0.4l-0.1,0.3l0.2,0.4l-0.5,0.3l0,0.6l-0.4,0.3l0.3,0.8l0,1.4
		l-0.3,1l0.7,1.2l0.7-1.1l0.1-0.8l1.2,0.5l0.5,0.3l0.3,0.5l0.2,0.6l0.3,0.5l0.6,0.2l0.5,0.3l0.4,0.7l0.3,0.8l0.2,0.4l0.3,0.7
		l0.2,0.5l-0.1,0.4l-0.3,0.3l-1,0.1l0.4,1.2l0.2,0.3l0.4,0.1l0.9,0.1l0.4,0.2l0.5,0.5l0.7,1l0.4,0.4l1.2,0.7l0.8,0.4l0.4,0.8
		l0.1,0.3l-0.2,0.6l-0.2,0.3l0.1,0.4l0.4,0.2l0.6,0.9l0.5,0.8l0.1,0.9l0.1,0.9l-0.1,0.8l0.5,0.5l1.5,0.7l0.3,0.2l0.2,0.2l0.2,0.4
		l0.2,0.4l0.3,0.3l0.4,0.1l0.3,0.1l0.3,0.2l0.3,0.2l0.1,0.2l1.8,0.9l1.5,1.3l0.9,0.6l0.7,0.4l1,0.5l2.9,1.4l1.6,1.2l0.1,0.3
		l-0.1,1.1l0.1,0.2l0.4,0.4l1.3,0.9l0.3,0.4l0.2,0.7l1.6,2.4l0.3,0.8l0.3,0.6l0.5,0.4l1.8,0.3l0.7,0.3l1.7,1.6l0.2,0.3l0.2,0.3
		l0,0.4l-0.2,0.4l-0.4,0.2l-0.7,0l0.9,1l1.4,0.6l1,0.6l0.5,0.8l-0.1,0.5l-0.7,0.2l-0.5,0.2l-0.1,0.1l0.1,0.3l0.6,0.1l0.2,0.1
		l0.2,0.6l0.5,0.2l0.7,0.1l0.7,0.2l0.4,0.3l0.7,0.7l0,0l2-3.1l0.2-0.5l0.2-0.7l0.3-0.6l1.3-2.3l0.9-0.8l7.4-4.7l1.2-3.2l0.1-0.6
		l0-1.2L139.7,196.4z"/>
	<polygon id="Huánuco_3_" class="st0" points="146.1,-26.2 146.1,-26.6 145.9,-27.4 145.7,-28.1 145.5,-28.5 145.3,-28.8 
		145.1,-29 144.8,-29.2 144.2,-29.6 143.8,-29.8 143.4,-29.8 140.2,-30.1 139.4,-30 138.3,-29.7 135.8,-28.7 135.3,-28.3 
		132.2,-25.7 131.8,-25.5 130,-24.7 129.2,-24 127.5,-22.3 126.3,-20.8 124.2,-17.6 123.3,-16.5 123,-16 122.8,-15.6 122.4,-14.5 
		122.2,-14.2 121.4,-13.1 121.1,-12.4 120.5,-11 120.3,-10.7 119.2,-9.5 118.5,-8.3 118,-7.9 117.2,-7.5 115.6,-6.9 114.8,-6.7 
		113.9,-6.6 113.5,-6.4 109.3,-2.9 108.9,-2.6 108,-2.2 107.2,-2 106,-2.1 105.6,-2.4 105.1,-2.9 103.5,-6.2 103.3,-6.5 102.7,-6.9 
		101.8,-7.6 101.6,-7.8 101.3,-8.2 101.1,-8.9 100.8,-10 100.8,-10.7 100.8,-11.2 100.9,-11.6 100.9,-12.1 100.9,-12.5 100.8,-13.3 
		100.6,-13.6 99.9,-15 99.6,-15.4 99.2,-15.7 98.9,-15.9 98.5,-16 98.2,-16.2 98.1,-16.3 97.9,-16.4 97.8,-16.6 97.7,-16.9 
		97.2,-23.2 97.1,-23.7 96.8,-24.4 95.2,-26.7 94.7,-27.8 94.6,-29.2 95.3,-31.9 93.6,-30.9 93.3,-30.5 92.8,-29.9 91.6,-27.9 
		91.3,-27.3 90.9,-26.7 89.9,-26 88.9,-26 88.5,-26.2 88.1,-26.6 87.8,-26.9 87.6,-27.3 87.4,-28.7 86.8,-30.3 86.8,-30.7 86.6,-31 
		86.5,-31.7 86.3,-32 86.1,-32.4 85.6,-32.8 85.3,-33.2 85.1,-33.5 85,-34.1 84.9,-34.3 84.8,-34.4 84.1,-35.1 83.9,-35.4 
		83.8,-35.8 83.8,-36.5 83.7,-36.9 83.6,-37.3 83,-38.4 82.7,-38.6 82.2,-38.6 81.6,-38.3 81.3,-37.9 81.1,-37.5 81,-36.7 
		81.1,-34.2 80.9,-32.5 80.5,-31.8 80.3,-31.4 80,-31.1 78.9,-30.8 77.6,-30.8 72.7,-31.6 71.8,-31.8 68.9,-32.5 67.7,-32.9 
		66.5,-33 63.5,-32.4 63.2,-31.6 62.5,-30.6 62.1,-30.4 61.6,-30.4 60.1,-30.8 59.6,-30.8 59.1,-30.7 58.7,-30.7 58.4,-31 
		58.2,-31.4 57.9,-33.1 57.6,-34 57.3,-34.2 57.2,-34.4 56.8,-34.4 56.2,-34.4 54.5,-33.8 54,-33.5 53.4,-33.3 52.6,-33.2 
		49.3,-33.2 47.1,-33.1 47.3,-32.7 47.4,-32.3 47.6,-31.1 48,-30.3 48,-30 48.1,-28.2 48.3,-27.8 48.6,-27.5 49.5,-27 49.9,-26.6 
		51,-25.2 51.2,-24.7 51.2,-24.2 51,-23.8 50.9,-23.3 51.1,-22.8 51.7,-22 53.7,-20.1 54.2,-19.9 55.9,-19.4 56.1,-18.9 57.4,-17.7 
		58.6,-16.1 59,-15.7 59.4,-15.5 61.3,-15 61.5,-14.8 61.7,-14.6 61.7,-14.4 61.9,-14.2 62.2,-14 62.6,-13.3 63.4,-12.8 65.2,-12.2 
		66.2,-11.7 67.1,-11 67.7,-10.4 67.6,-9.2 67.4,-8.9 67.1,-8.6 66.5,-8.1 63.8,-5.4 63.4,-4.9 59.9,3.3 59.9,5.2 59.4,6.4 
		56.7,9.6 56.2,10.3 55.9,10.9 55.9,11.3 55.9,11.7 56.1,12.1 56.9,13.2 58,15.8 58.5,17.3 58.5,19.4 58.7,20.8 58.9,21.3 
		59.1,21.6 59.7,22.1 60,22.3 60.3,22.4 60.8,22.5 61.2,22.7 61.6,23 61.8,23.3 61.8,23.6 61.7,24 61.1,25.3 61,25.7 60.8,27.5 
		60.9,29.4 61.1,30.6 61.2,30.9 61.6,31.3 62,31.5 62.4,31.6 62.8,31.5 63.4,31.5 64.1,31.8 64.5,32.1 64.7,32.5 64.8,33.3 
		65.1,34.1 66.4,34.9 66.6,35 67.3,35 69.7,33.4 70.6,32.7 72.9,29.5 73.2,29.1 73.7,28.9 75.6,28.5 79.9,28.5 81.4,28.7 82.7,29.3 
		83.4,29.7 83.6,30 84,30.5 84.3,31 84.8,31.8 85,31.9 85.3,32.1 85.6,32.2 92.5,32.6 94.1,33.3 95.6,34.4 100.5,32.2 101.5,31.5 
		101.8,30.9 101,29.1 99.7,22.6 99.7,21.8 99.7,20.9 100,19.2 100.3,18.4 100.7,17.7 101.5,17 102.6,16.3 103.1,16 104,15.7 
		104.6,15.6 107.2,15.3 111.5,15.5 113.7,15.3 116.4,14.7 117.5,14.4 124.2,11.1 124.7,11.1 125.3,11.1 129.5,11.7 129.7,11.7 
		137.2,10.4 145.1,6.6 140.5,-0.2 139.9,-0.9 139.4,-1.7 138.8,-3.1 138.7,-3.6 138.7,-3.9 138.7,-4.2 139.1,-5.7 140.1,-8.7 
		140.5,-10.4 140.5,-11.2 140.5,-11.7 140.1,-13.2 140.1,-13.7 140.2,-14.1 140.3,-14.5 140.4,-14.8 141,-15.7 141.9,-17.7 
		142.2,-18.9 142.4,-22.4 142.5,-22.8 142.6,-23.2 142.9,-23.4 143.2,-23.7 145.2,-24.7 145.8,-25.1 146,-25.5 146.1,-25.9 	"/>
	<polygon id="Huancavelica_3_" class="st0" points="154.1,127.5 154,127 153,124.4 152.1,123.6 152.3,122.4 152.3,122.1 152.2,121 
		152.4,120.8 152.5,120.7 152.7,120.7 153.1,120.7 153.2,120.7 153.2,120.7 153.3,120.6 153.3,120.4 153.3,120.2 153.3,120 
		153.3,119.9 153.5,119.5 153.6,119.4 153.6,119.1 153.6,118.7 153.5,118.2 153.4,117.9 152.6,116.3 152.4,115.8 152.4,115.4 
		152.5,115 152.6,114.6 152.6,113.9 152.5,113.5 152.3,112.9 151.9,112.3 150.2,110.1 149.5,109.1 149.3,108.7 148.9,107.7 
		148.8,107.5 148.6,107.4 148.4,107.2 147.9,107.1 147.6,107.1 147.4,107.1 147,107.3 146.9,107.4 146.7,107.4 146.5,107.4 
		146.1,107.2 145.9,107 144.6,105 145.4,103 146.3,99.9 146.6,99.5 146.9,99.1 148.1,97.8 150.4,96.1 148.6,94.7 146.3,92.5 
		146,92.2 145.8,92.2 144.7,92.2 143.1,91 142.5,90.7 141.6,90.6 140.2,90.2 139.8,90.2 139.6,90.2 139.4,90.3 139.3,90.4 139,90.7 
		138.8,91 138.6,91.5 138.5,91.7 138.2,91.8 136.5,92.3 135.7,92.3 135.1,92.3 134.6,92.2 134.2,92 133.7,91.9 133.2,91.9 
		131.9,92.4 131,92.5 130.4,92.5 129.9,92.4 129.2,92.2 128.7,92 128.5,91.8 128.2,91.6 128,91.4 127.3,90.4 127.1,90.2 126.7,90.1 
		126.5,90.2 126.3,90.5 126.1,90.9 125.9,91.2 125.7,91.5 124.9,92.2 124.7,92.4 124.6,92.7 124.6,93.1 124.7,93.4 124.9,93.8 
		125.3,94.3 126.1,95 126.4,95.3 126.5,95.6 126.6,96 126.8,96.8 126.8,97.3 126.7,97.6 125.5,100 125.3,100.3 125,100.6 
		124.6,100.9 123.9,101.2 123.3,101.3 123.2,101.3 123.1,101.4 123.1,101.8 123.2,101.9 123.6,102.6 123.7,103.5 123.8,103.6 
		124,104 124.1,104.2 124.2,104.2 124.5,104.3 122.3,104.8 121.4,105.3 120.4,106.9 120,107.3 119.6,107.4 119.1,107.5 118.5,107.7 
		118,108.1 115.4,110.8 115,111.2 114.8,111.6 114.5,112.5 114.2,113.1 114,113.3 113.6,113.5 113.3,113.6 112.9,113.8 112.7,114.1 
		112.6,114.5 112.4,115.2 112.4,115.6 112.4,116.6 111.6,118.3 110.7,119.5 109.2,120.9 108,121.7 107.7,122.1 107.4,122.7 
		107,124.9 106.5,126.2 106.8,126.6 106.9,126.8 106.9,126.9 106.9,127.2 106.7,127.6 106.3,128.4 106,128.8 105.6,129.1 
		104.3,129.8 104,130 103.8,130.3 103.8,130.9 104.2,132.8 104.3,133.4 104.2,133.9 104.1,134.7 103.8,135.2 103.5,135.4 
		102.8,135.8 102.6,136 102.3,136.2 102.2,136.6 102.1,137.5 102,137.9 101.8,138.3 101.2,139.1 100.8,139.8 100.7,140.2 
		100.6,140.6 100.7,140.9 100.8,141.3 101.1,141.5 102.1,141.7 104.5,141.6 105.2,141.6 105.9,141.7 107.1,142 108.9,142.7 
		109.7,142.9 111,143 111.3,143.1 111.7,143.3 111.9,143.7 110.8,146.3 110.4,146.9 110,147.5 109.6,148 110.3,149.7 110.6,150.4 
		110.7,150.7 110.8,151.2 109.7,153.4 109.2,154 109.1,154.5 109.1,154.8 109.2,155.1 109.8,156.1 109.9,156.4 109.8,156.7 
		109.4,157.3 109.4,157.7 109.5,158 109.8,158.7 110.1,159 110.5,159.4 112.6,160.3 113,160.5 113.6,161 114.1,161.3 114.8,161.5 
		115.2,161.6 116.6,161.7 116.9,161.9 117.4,162.2 118,162.8 119.9,164.1 121.5,165.8 122.5,166 123.5,166.1 124,166.2 124.5,166.4 
		125.1,166.7 125.8,167.3 126.5,168.3 126.9,167.5 127.7,167 129.2,166.3 135,165.1 136.9,165.2 137.5,165.2 137.8,164.9 138,164.5 
		138.2,163.8 138.6,159.5 138.3,157.6 137.5,155.2 136.2,152.3 136,151.2 136.1,148.4 135.9,147.8 135.7,147.4 135.5,147.2 
		135.3,146.9 135.1,146.7 134.5,146.3 134.2,146 134,145.7 133.9,145.4 133.8,145 133.7,144.9 133.6,144.7 133,144.3 132,143.7 
		131.7,143.5 131.5,143.3 131.4,143 132.4,139.6 132.6,139.3 132.8,139.2 134.6,138.8 135.9,138.2 136.2,138.2 136.6,138.2 
		136.9,138.4 137.1,138.7 137.7,139.8 137.8,140.1 138.2,140.3 138.7,140.4 139.7,140.5 140.3,140.7 140.7,140.9 141.4,141 
		142.6,139.7 142.8,139.4 142.7,139.2 142.2,139 141.8,139 141.3,138.8 141,138.7 140.2,137.7 139.9,137.3 140.1,137 140.5,136.6 
		142.2,135.7 142.7,135.2 143.3,134.1 143.5,133.9 143.7,133.7 144,133.8 144.6,134.1 145,134.2 145.4,134.1 146.1,134 146.5,133.9 
		147.3,133.9 148.5,133.7 149,133.5 149.6,133.1 149.9,132.6 150,132.1 149.9,131.8 149.8,131.5 149.5,130.8 149.3,130 149.3,129.6 
		149.3,129.1 149.4,128.7 149.5,128.4 149.7,128.1 149.9,127.8 150.2,127.6 150.6,127.4 151,127.4 151.5,127.4 152.3,127.9 
		153.4,128.7 153.7,128.8 153.9,128.8 154.2,128.4 	"/>
	<polygon id="Ayacucho_3_" class="st0" points="204.7,190.8 204.6,189.7 202.3,188.6 201.9,188.3 200.8,187.4 199.9,186.9 
		199.2,186.4 198.1,185.9 197.9,186.2 197.6,186.8 197.3,187.1 197,187.2 196.5,187.3 195.9,187.2 195.5,187.3 195.2,187.4 
		194.7,187.9 194.4,188.1 194.1,188.2 193.5,188.3 192.7,188.4 191.2,188.9 190.4,189.1 189.6,189.2 189.2,189.1 188.8,189.1 
		188.2,188.9 187.4,188.6 187,188.5 186.7,188.5 186.4,188.7 186.3,189.1 186.2,189.4 186,189.8 185.8,190.1 185.1,190.8 
		184.9,191.1 184.5,191.8 184.3,192.1 184,192.3 183.6,192.4 182.6,192.5 181.6,192.8 181,192.9 180.5,192.3 179.1,188.5 
		179.1,188.3 179.4,188.2 180.2,188.3 180.6,188.1 180.9,187.8 181.7,184.7 181.7,183.9 181.1,182.8 180.2,181.3 180.2,180.6 
		180.4,178.4 180.7,175.9 180.7,174.5 180.5,173 180.5,172.4 180.4,171.9 180.3,171.3 179.1,169.5 178.3,168.3 178,167.8 
		177.7,167.1 177.3,165.5 177,163.1 173,155.5 172.9,154.7 174.4,154.3 174.8,154.1 175,153.9 174.9,153.4 174.2,152.5 173.4,151.2 
		173.2,150.9 173,150.7 172.7,150.5 172.3,150.4 171.7,150.3 171.4,150.1 171.1,149.7 170.6,148.6 170.5,148 170.3,145.5 170,144.2 
		170,142.9 169.6,142.2 169.5,141.8 169.3,140.6 169.4,140.1 169.6,139.5 170.3,138.5 170.6,137.9 170.1,137.1 170,136.8 
		170.1,136.5 170.4,135.8 170.7,135.1 170.8,134.7 171.1,134.5 171.4,134.3 171.8,134.4 172.2,134.6 172.7,135.1 173.1,135.9 
		173.8,136.5 179.9,140.4 180.5,140.9 181.9,142.3 182.9,142.8 186.3,143.3 186.6,143.4 187.3,143.7 187.8,143.8 188.4,143.8 
		188.8,143.8 190,144.1 190.4,144.1 190.8,143.9 191,143.6 191.3,142.5 191.5,142.1 191.2,141.8 190.3,140.9 188.6,139.8 
		188.3,139.5 188.2,139.1 187.5,138.3 186.6,136.7 184.8,134.5 183.8,133.6 182.7,133.2 182.5,133 181.7,131.6 181.2,131.2 
		180,130.5 179.4,130.2 179.4,130 179.9,129.2 179.2,126.4 179.5,125.8 179.7,125.7 179.6,125.4 179.4,125.2 179,125 178.8,124.9 
		178.6,124.6 178.1,122.7 177.8,122.1 177.6,121.8 177.4,121.6 177.1,120.2 176.9,118.9 176.8,118.5 176.3,117.6 176,117 
		175.7,115.8 175.4,115.3 173.7,113.5 173.1,113.2 173.1,113.4 173,113.7 172.9,113.9 172.4,113.5 170.5,110.9 170.2,109.9 
		170,109.4 169.7,109.2 169,109 168.9,108.6 169.1,107.6 169,107 168.9,106.7 168.7,106.5 168.3,106 168.1,105.5 168,104.6 
		167.7,104.2 166.4,102.5 165.4,100.8 163.9,101 163.4,101 163.1,100.8 163,100.7 162.5,100.4 161.9,100.3 161.6,100.2 161.3,100.3 
		161,100.4 160.5,100.7 159.7,101.6 159.1,101.9 158.5,102.1 158.2,102.2 157.9,102.1 156.4,101.7 156,101.5 155.7,101.3 
		155.2,100.8 154.7,100.4 154,99.6 153.7,99.4 153.3,99.2 152.1,98.8 151.9,98.7 151.8,98.5 151.7,98.4 151.6,98.2 151.4,97.6 
		151.2,97.1 151.1,96.9 150.4,96.1 148.1,97.8 146.9,99.1 146.6,99.5 146.3,99.9 145.4,103 144.6,105 145.9,107 146.1,107.2 
		146.5,107.4 146.7,107.4 146.9,107.4 147,107.3 147.4,107.1 147.6,107.1 147.9,107.1 148.4,107.2 148.6,107.4 148.8,107.5 
		148.9,107.7 149.3,108.7 149.5,109.1 150.2,110.1 151.9,112.3 152.3,112.9 152.5,113.5 152.6,113.9 152.6,114.6 152.5,115 
		152.4,115.4 152.4,115.8 152.6,116.3 153.4,117.9 153.5,118.2 153.6,118.7 153.6,119.1 153.6,119.4 153.5,119.5 153.3,119.9 
		153.3,120 153.3,120.2 153.3,120.4 153.3,120.6 153.2,120.7 153.2,120.7 153.1,120.7 152.7,120.7 152.5,120.7 152.4,120.8 
		152.2,121 152.3,122.1 152.3,122.4 152.1,123.6 153,124.4 154,127 154.1,127.5 154.2,128.4 153.9,128.8 153.7,128.8 153.4,128.7 
		152.3,127.9 151.5,127.4 151,127.4 150.6,127.4 150.2,127.6 149.9,127.8 149.7,128.1 149.5,128.4 149.4,128.7 149.3,129.1 
		149.3,129.6 149.3,130 149.5,130.8 149.8,131.5 149.9,131.8 150,132.1 149.9,132.6 149.6,133.1 149,133.5 148.5,133.7 147.3,133.9 
		146.5,133.9 146.1,134 145.4,134.1 145,134.2 144.6,134.1 144,133.8 143.7,133.7 143.5,133.9 143.3,134.1 142.7,135.2 142.2,135.7 
		140.5,136.6 140.1,137 139.9,137.3 140.2,137.7 141,138.7 141.3,138.8 141.8,139 142.2,139 142.7,139.2 142.8,139.4 142.6,139.7 
		141.4,141 140.7,140.9 140.3,140.7 139.7,140.5 138.7,140.4 138.2,140.3 137.8,140.1 137.7,139.8 137.1,138.7 136.9,138.4 
		136.6,138.2 136.2,138.2 135.9,138.2 134.6,138.8 132.8,139.2 132.6,139.3 132.4,139.6 131.4,143 131.5,143.3 131.7,143.5 
		132,143.7 133,144.3 133.6,144.7 133.7,144.9 133.8,145 133.9,145.4 134,145.7 134.2,146 134.5,146.3 135.1,146.7 135.3,146.9 
		135.5,147.2 135.7,147.4 135.9,147.8 136.1,148.4 136,151.2 136.2,152.3 137.5,155.2 138.3,157.6 138.6,159.5 138.2,163.8 
		138,164.5 137.8,164.9 137.5,165.2 136.9,165.2 135,165.1 129.2,166.3 127.7,167 126.9,167.5 126.5,168.3 126.2,168.9 126,169.3 
		125.9,169.8 125.9,170.4 126.5,171.9 126.7,172.5 126.5,173.2 125.2,175.8 124.8,176.3 124.5,176.9 124.2,177.5 124.5,177.9 
		124.8,178.2 126.3,179.2 126.6,179.5 126.8,179.8 127.1,180.4 127.2,180.9 127.2,181.2 126.4,182.7 126.9,184.2 127,185.1 
		127.1,185.4 127.4,185.5 129.3,185.2 129.6,185 129.9,184.8 130.2,184.6 131,183.4 131.3,183.2 131.6,183.1 132,183.1 132.4,183.3 
		132.7,183.5 133,183.9 133.4,184.5 133.7,184.8 134.1,185.1 134.3,185.4 134.4,185.7 134.2,186.7 134.2,187.1 134.6,187.7 
		134.9,188 136.4,189.1 136.7,189.3 136.9,189.6 137,190.1 137.2,190.7 137.3,191.8 137.6,192.9 138.3,193.7 138.7,194.7 
		139.4,195.6 139.5,195.9 139.7,196.4 139.8,197.7 139.7,198.9 139.7,199.5 138.5,202.6 138.5,203.1 138.6,203.4 138.8,203.8 
		139,204.1 139.4,204.3 140.3,204.7 143,205.1 145.7,206 147,206.2 147.3,206.4 147.6,206.6 147.6,206.9 147.6,207.2 147.5,207.6 
		147.5,208.1 147.8,208.9 148.7,210.1 149,210.9 149.2,211.5 149.3,211.9 149.5,212.3 149.9,212.6 151.3,213 152,213.5 152,214.3 
		152.1,214.6 152.2,215 152.4,215.3 153.6,216.6 153.9,216.8 154.2,217 154.6,217.1 155.3,217.4 156,217.5 156.4,217.4 156.8,217.3 
		157.7,217 158.5,216.6 159.4,215.9 159.7,215.8 160.1,215.8 160.4,216.1 160.5,216.5 160.5,217.5 160.6,217.6 160.6,217.7 
		160.8,218 161,218.2 161.2,218.5 161.2,218.8 161,220.5 160.9,220.8 161,221.2 161.1,221.5 161.5,221.6 162.1,221.6 164.8,220.2 
		165.1,219.8 165.4,219.5 165.8,218.4 167.2,216.2 167.4,216 167.9,215.7 168.6,215.6 172.3,215.7 175.9,215.1 177.5,215 179,214.6 
		183.2,212.7 184.2,213.2 184.5,213.3 185.2,213.6 187.8,213.9 189.3,213.8 189.2,213.5 189.1,212.8 189,211.3 189.1,210.2 
		189.4,209.9 189.7,209.7 190.1,209.7 190.8,209.8 191.6,209.9 192.7,210.3 193,210.4 193.2,210.3 193.5,210.1 193.7,209.9 
		194.2,209.3 195.3,207.1 195.6,206.7 197.6,204.7 198.1,204.2 198.4,202.7 198.6,200.9 198.8,199.5 199,198.9 199.1,198.5 199,198 
		198.8,197.5 198.3,196.9 198,196.1 198.3,194.5 198.5,194.1 198.9,193.5 199.1,193.3 199.3,193.1 199.6,192.9 200.3,192.6 
		200.7,192.5 201.2,192.5 202.8,192.7 203.2,192.7 203.6,192.6 204.4,192.4 204.7,192.2 205,192 205,191.7 	"/>
	<polygon id="Arequipa_3_" class="st0" points="275.2,232.6 273.7,231.5 273.4,230.9 272.8,229.6 272.5,229.1 272.2,228.8 
		272,228.5 271.8,228.1 271.8,227.7 271.9,227.4 272,227.1 272.9,225.6 273,225.2 273.1,224.7 273,224.3 272.6,223.6 272.3,223.3 
		270.9,222.1 270.4,221.6 269.3,220.1 269.1,219.8 269.1,219.3 269.2,218.1 269.3,217.6 269.3,217.4 269.2,217 269,216.5 
		268.7,216.2 268.6,215.8 268.5,215.2 268.8,212.8 268.6,211.6 268,211.1 267.2,210 266.7,209.4 265.7,208.6 265.1,208.3 264.2,208 
		263.6,207.7 263.4,207.4 263.3,207 263.4,205.5 263.6,204.7 263.6,204.2 263.5,203.8 263.2,203.2 263,202.8 262.7,202.5 
		262.4,202.3 262,202.1 261.7,202 261.4,202 261,202.1 260.7,202.3 260.4,202.5 259.4,203.5 259.1,203.7 258.7,203.7 258.2,203.6 
		257.8,203.4 255.8,201.5 255.2,201.2 254.8,201 254,201.2 253.4,201 252.3,200.1 251.9,200.1 251.6,200.2 251.6,200.5 251.7,200.9 
		251.8,201.2 251.9,201.5 251.8,201.8 251.6,202.1 251.2,202.2 250.8,202.3 250.4,202.3 249.6,202.2 249.1,202.2 248.3,202.4 
		248,202.5 247.4,202.8 246.5,203.5 246.2,203.6 245.8,203.5 245.4,203.2 245,203 240.6,201.9 239.7,201.5 239.3,201 239.3,200.7 
		239.7,200 239.8,199.7 239.8,199.5 239.8,199.1 239.4,197.2 239.5,196.8 239.7,196.5 239.9,196.3 240.6,196 240.9,195.8 
		241.1,195.5 241.2,195.2 241.3,194.8 241.1,194.6 240.7,194.4 240.2,194.4 239.5,194.2 239.1,194 238.7,193.7 238.5,193.4 
		238.3,193.1 237.9,191.9 237.2,191 235.5,188.5 234.8,187.7 234.5,187.6 234.3,187.5 234,187.4 233.7,187.4 233.4,187.5 
		233.1,187.7 232.9,188 232.8,188.4 232.8,188.8 232.9,189.1 233.3,189.7 233.5,190 233.6,190.4 233.6,190.8 233.6,191.5 
		233.5,191.9 233.1,192.6 233,193 233,193.4 232.9,193.7 232,195 231.7,195.2 231.3,195.1 231,194.9 230.8,194.7 230.6,194.4 
		230.5,194 230,192.9 229.9,192.6 229.6,192.3 229.3,192.2 228.8,192.1 228.4,192.1 227.6,192.6 226.8,192.9 226,193 225,193.1 
		222.7,193.7 220.4,193.2 219.6,192.7 217.4,189.9 217.2,189.5 217.1,189.2 217.1,188.9 217.3,188.2 217.3,187.6 214.4,188.4 
		213.7,188.5 213.1,188.4 212.7,188.2 212.3,188 211.8,187.9 211.1,187.8 210,187.9 209.5,187.8 209,187.6 208.7,187.4 208.3,187.3 
		207.6,187 207.1,187.1 206.4,187.5 205.5,188.3 204.6,189.7 204.7,190.8 205,191.7 205,192 204.7,192.2 204.4,192.4 203.6,192.6 
		203.2,192.7 202.8,192.7 201.2,192.5 200.7,192.5 200.3,192.6 199.6,192.9 199.3,193.1 199.1,193.3 198.9,193.5 198.5,194.1 
		198.3,194.5 198,196.1 198.3,196.9 198.8,197.5 199,198 199.1,198.5 199,198.9 198.8,199.5 198.6,200.9 198.4,202.7 198.1,204.2 
		197.6,204.7 195.6,206.7 195.3,207.1 194.2,209.3 193.7,209.9 193.5,210.1 193.2,210.3 193,210.4 192.7,210.3 191.6,209.9 
		190.8,209.8 190.1,209.7 189.7,209.7 189.4,209.9 189.1,210.2 189,211.3 189.1,212.8 189.2,213.5 189.3,213.8 187.8,213.9 
		185.2,213.6 184.5,213.3 184.2,213.2 183.2,212.7 179,214.6 177.5,215 175.9,215.1 172.3,215.7 168.6,215.6 167.9,215.7 167.4,216 
		167.2,216.2 165.8,218.4 165.4,219.5 165.1,219.8 164.8,220.2 162.1,221.6 161.5,221.6 161.1,221.5 161,221.2 160.9,220.8 
		161,220.5 161.2,218.8 161.2,218.5 161,218.2 160.8,218 160.6,217.7 160.6,217.6 160.5,217.5 160.5,216.5 160.4,216.1 160.1,215.8 
		159.7,215.8 159.4,215.9 158.5,216.6 157.7,217 156.8,217.3 156.4,217.4 156,217.5 155.3,217.4 154.6,217.1 154.2,217 153.9,216.8 
		153.6,216.6 152.4,215.3 152.2,215 152.1,214.6 152,214.3 152,213.5 151.3,213 149.9,212.6 149.5,212.3 149.3,211.9 149.2,211.5 
		149,210.9 148.7,210.1 147.8,208.9 147.5,208.1 147.5,207.6 147.6,207.2 147.6,206.9 147.6,206.6 147.3,206.4 147,206.2 145.7,206 
		143,205.1 140.3,204.7 139.4,204.3 139,204.1 138.8,203.8 138.6,203.4 138.5,203.1 138.5,202.6 131.1,207.3 130.2,208.1 
		128.9,210.4 128.7,211 128.4,211.7 128.2,212.3 126.2,215.4 126.2,215.4 126.6,215.8 127.2,216.2 127.4,216.3 127.6,216.2 
		128.2,216.1 128.6,216.3 129.6,217 133.5,219.1 134.2,220.1 137.6,221.5 140.1,222.9 145.1,225.1 146.9,225.6 147.8,226 148,226.5 
		148,227 148.2,227.3 148.3,227.6 148.3,228.4 148.5,228.6 150.1,229.6 151.3,230.1 152.5,230.4 153.9,230.1 154.7,230.4 
		155.1,230.7 155.3,231.1 155.7,231.6 156.3,232 157.8,232.2 158.4,232.3 161.3,234 162.4,234.5 162.8,235 163.1,235.5 162.9,236 
		162.9,236.4 163.9,237.3 166.4,239.1 168.6,240.7 169.6,241.3 172.1,242.5 173.4,242.9 173.6,243.1 174,243.5 174.6,244 
		174.6,244.9 175.5,244.3 178.2,244.7 182.3,246.2 184.5,246.7 186.4,247.7 187.4,247.9 187.8,248.1 188.1,248.4 188.5,250 
		188.8,250.5 189.4,250.2 189.9,250.4 190.4,250.7 191.1,250.9 192.5,250.9 193.1,251.1 194.4,252 195.9,252.8 197.1,254.1 
		203.2,256.3 206.9,259 210.1,260.2 213.8,260.1 215.8,261 217.3,261.3 217.6,261.4 218.4,262 218.6,262.1 219,262.2 219.2,262.4 
		219.6,262.9 219.9,263.1 220.2,263.2 220.5,263.2 220.9,263.3 221.7,263.9 223.7,266.2 224,266.9 224,267.6 224.1,268.3 225,268.8 
		226.7,269.2 227.5,269.6 227.9,270.2 228.2,270.5 229.6,271.4 230.1,271.8 230.1,272.2 230.1,273 230.3,273.4 230.6,273.5 
		232.8,273.7 233.6,273.9 234.3,274.2 236.2,275.4 237.1,276.2 238.7,278.1 239.9,279.1 241.2,279.7 247.1,281.2 247.2,281.3 
		247.8,281.7 248.4,282.2 248.8,282.4 249.6,282.7 251,283 251.5,283.1 252.1,283.6 252.4,284.4 252.4,284.4 253.7,283.4 
		254.3,282.8 254.7,282.2 255,281 255.4,280.3 256.4,279.1 256.5,278.8 256.6,278.5 257.5,275.2 257.6,274.9 257.8,274.6 258,274.3 
		257.7,273.9 257.4,273.6 255.3,271.9 254.8,270.7 254.1,269.3 253.9,268.5 253.8,267.7 253.8,267.4 253.9,266.9 254.2,266.3 
		254.5,265.9 256.3,264.2 257.1,263.8 258.3,263.4 258.6,263.2 258.8,262.9 258.9,262.5 259,261.4 259,261 258.7,259.3 258.8,258.9 
		259.1,258.5 260.2,257.3 261.8,254.8 262.4,254.2 262.8,254 264.6,253.2 265,253.1 266.1,253.1 266.6,253 267.3,252.8 267.7,252.7 
		268,252.8 268.3,253 268.8,253.5 269,253.7 269.3,253.8 269.5,253.7 270.8,253.2 271.1,252.9 271.3,252.5 271.3,251.8 271.2,251.3 
		270.9,250.1 270.9,249.8 270.9,249.5 271.1,249.1 271.3,248.6 271.6,248.3 273.1,246.7 274,245.6 274.4,243.5 274.9,235.5 
		275.2,234.4 275.4,233.5 	"/>
	<polygon id="Apurímac_3_" class="st0" points="231.5,160.8 231.1,159.8 230.5,158.8 230.3,158.4 229.5,156.9 229.1,156.1 
		228.6,155.3 226.7,153.6 226.4,153.2 226.2,153.1 225.1,152.3 224.9,152.1 223.1,152.2 222.6,152.1 221.2,151.3 220.6,150.8 
		220.2,150.3 220.4,150.1 219.7,149 219.3,148.5 218.8,148.3 217.4,148.3 216.9,148.3 216.7,148.1 216.5,147.9 216.3,147.8 
		215,147.4 213.5,147.3 213.1,147.2 212.9,146.7 212.6,146.6 212.2,146.5 209.6,145.1 207.3,143.2 206.2,142.6 204.8,142.4 
		203.4,142.4 203.2,142.3 203,142 202.9,141.6 202.8,141.3 202.6,141.2 201.7,141.1 200.5,141.3 200,141.5 199,142.3 198.9,142.3 
		198.7,142.4 198.5,142.4 198.1,142.2 198,142.1 197.5,142.3 197.3,142.4 196.7,143 195.8,143.5 195.2,143.2 194.7,142.7 194,142.4 
		193.8,142.5 193.5,142.7 193.3,142.8 193,142.7 192.7,142.5 191.5,142.1 191.3,142.5 191,143.6 190.8,143.9 190.4,144.1 190,144.1 
		188.8,143.8 188.4,143.8 187.8,143.8 187.3,143.7 186.6,143.4 186.3,143.3 182.9,142.8 181.9,142.3 180.5,140.9 179.9,140.4 
		173.8,136.5 173.1,135.9 172.7,135.1 172.2,134.6 171.8,134.4 171.4,134.3 171.1,134.5 170.8,134.7 170.7,135.1 170.4,135.8 
		170.1,136.5 170,136.8 170.1,137.1 170.6,137.9 170.3,138.5 169.6,139.5 169.4,140.1 169.3,140.6 169.5,141.8 169.6,142.2 
		170,142.9 170,144.2 170.3,145.5 170.5,148 170.6,148.6 171.1,149.7 171.4,150.1 171.7,150.3 172.3,150.4 172.7,150.5 173,150.7 
		173.2,150.9 173.4,151.2 174.2,152.5 174.9,153.4 175,153.9 174.8,154.1 174.4,154.3 172.9,154.7 173,155.5 177,163.1 177.3,165.5 
		177.7,167.1 178,167.8 178.3,168.3 179.1,169.5 180.3,171.3 180.4,171.9 180.5,172.4 180.5,173 180.7,174.5 180.7,175.9 
		180.4,178.4 180.2,180.6 180.2,181.3 181.1,182.8 181.7,183.9 181.7,184.7 180.9,187.8 180.6,188.1 180.2,188.3 179.4,188.2 
		179.1,188.3 179.1,188.5 180.5,192.3 181,192.9 181.6,192.8 182.6,192.5 183.6,192.4 184,192.3 184.3,192.1 184.5,191.8 
		184.9,191.1 185.1,190.8 185.8,190.1 186,189.8 186.2,189.4 186.3,189.1 186.4,188.7 186.7,188.5 187,188.5 187.4,188.6 
		188.2,188.9 188.8,189.1 189.2,189.1 189.6,189.2 190.4,189.1 191.2,188.9 192.7,188.4 193.5,188.3 194.1,188.2 194.4,188.1 
		194.7,187.9 195.2,187.4 195.5,187.3 195.9,187.2 196.5,187.3 197,187.2 197.3,187.1 197.6,186.8 197.9,186.2 198.1,185.9 
		199.2,186.4 199.9,186.9 200.8,187.4 201.9,188.3 202.3,188.6 204.6,189.7 205.5,188.3 206.4,187.5 207.1,187.1 207.6,187 
		208.3,187.3 208.7,187.4 209,187.6 209.5,187.8 210,187.9 211.1,187.8 211.8,187.9 212.3,188 212.7,188.2 213.1,188.4 213.7,188.5 
		214.4,188.4 217.3,187.6 217.5,186.7 217.5,185.8 217.5,185.4 217.3,185 216.8,184.1 216.7,183.7 216.7,183.3 216.8,182.9 
		217,182.6 217.3,182.2 217.6,181.8 218,181.6 218.5,181.3 219.3,181.1 219.9,180.9 220.4,180.4 220.7,180 220.9,179.6 221.2,179.3 
		221.6,179.1 222.3,179 222.9,178.8 223.4,178.6 224.6,178.2 225,177.9 225.9,176 226.3,175.5 227.1,174.6 228,173.5 228.2,173.2 
		228.5,173 229.7,172.2 229.9,172 230.1,171.6 230.5,171 231.5,167.1 	"/>
	<polygon id="Ancash_3_" class="st0" points="67.1,-11 66.2,-11.7 65.2,-12.2 63.4,-12.8 62.6,-13.3 62.2,-14 61.9,-14.2 
		61.7,-14.4 61.7,-14.6 61.5,-14.8 61.3,-15 59.4,-15.5 59,-15.7 58.6,-16.1 57.4,-17.7 56.1,-18.9 55.9,-19.4 54.2,-19.9 
		53.7,-20.1 51.7,-22 51.1,-22.8 50.9,-23.3 51,-23.8 51.2,-24.2 51.2,-24.7 51,-25.2 49.9,-26.6 49.5,-27 48.6,-27.5 48.3,-27.8 
		48.1,-28.2 48,-30 48,-30.3 47.6,-31.1 47.4,-32.3 47.3,-32.7 47.1,-33.1 47.1,-34.4 46.8,-35.4 46.2,-36.6 43.7,-39.8 41.5,-43.3 
		41,-43.7 40.8,-43.9 40.4,-44.1 39.7,-44.4 37.2,-46.7 36.7,-47.5 36.5,-47.9 36.4,-48.4 36.4,-48.8 36.6,-49.2 36.1,-49.8 
		35.7,-50.4 35.5,-51.1 35.7,-51.7 35,-51.4 34.4,-50.9 33.2,-50.4 32.3,-50.2 31.2,-49.7 30.6,-49.5 30,-49.4 29.1,-49.5 
		28.3,-49.7 27.9,-49.8 27.5,-49.9 26.9,-49.8 26.6,-49.5 26.3,-49.1 25.8,-47.4 25.4,-46.7 24.8,-46 19.4,-41.4 19.1,-41 
		18.9,-40.6 18.8,-40 18.7,-39.7 18,-38.5 17.8,-38.2 17.8,-37.9 17.8,-37.5 17.7,-37.2 17.6,-36.9 16.3,-34.7 15.2,-33.3 15,-32.9 
		14.9,-32.5 15,-32.1 15.3,-31.5 15.4,-30.9 14.3,-28.7 14.1,-28.6 13.9,-28.6 13,-28.6 12.1,-28.5 11.3,-28.3 9.4,-26.9 4.4,-25.3 
		3.1,-24.2 2.3,-22.8 1.9,-19.7 1.6,-18.5 1.4,-18.3 1.1,-17.9 0.5,-17.8 0.4,-17.2 0.3,-17 0,-17.1 0,-16.7 0.9,-16.4 1.2,-16.1 
		1,-15.7 0.8,-15.1 0.7,-14.5 1,-14 1.3,-13.7 2,-13.8 2.5,-13.8 2.9,-13.3 3.3,-12.8 3.6,-12 3.6,-11.2 3.4,-10.8 3.2,-10.5 
		2.4,-10.8 1.8,-11 1.7,-10.8 1.8,-10.6 1.8,-10.2 2.3,-9.7 3,-8.9 3.4,-8 3.8,-7.8 3.9,-8.3 3.7,-9 3.7,-9.4 3.5,-9.7 3.6,-10 
		3.9,-10.2 4.4,-10.4 5.1,-10.2 5.8,-9.8 6.1,-8.9 6.1,-8.2 5.8,-7.5 5.4,-7.4 5.1,-7.2 4.8,-6.9 5,-6.6 5.4,-6.4 5.4,-6 5.5,-5.7 
		6.3,-4.8 6.6,-5 7.1,-5 7.5,-4.8 7.7,-4.4 8,-4.2 8.3,-3.8 8.7,-3.6 8.5,-3.4 8.2,-3.1 8.1,-2.5 8.3,-1.6 9,-1 9.5,-1 9.7,-0.4 
		9.3,0 9,0.5 9.2,1.4 9.6,1.9 9.5,2.4 9.7,3 10.3,3.3 10.1,4.3 10.3,5.4 10.8,6 11.2,6.7 11.6,7.1 11.9,7.8 12.5,8.4 12.7,9.2 
		13.8,10.5 15.2,11.8 15.2,12.9 14.9,13.4 14.7,14.1 14.8,14.7 15,15 15.2,15.6 15.2,16 15.2,16.5 15.2,16.8 15,17.1 15,17.2 
		15,17.5 15.2,17.5 15.4,17.7 15.7,17.8 15.8,18.2 16.1,18.7 16.3,19.1 16.5,19.9 17,20.7 17,21 17.1,21.4 17,21.6 17.3,22 
		17.4,22.5 17.2,22.7 16.9,22.7 16.9,23.1 17.1,23.5 17.4,24.2 18.9,25.6 19.6,26.3 19.8,26.8 20.1,27.3 19.9,27.7 20.2,28.5 
		20.3,29.1 20.6,29.4 21.2,29.9 21.3,30.9 21.3,31.6 22.7,32.4 23.1,32.8 23.1,33.2 22.8,33.6 22.9,33.9 23.5,34.6 24.1,35.5 
		24.5,36.2 24.4,36.8 25.3,37.6 26,38.1 26.5,39 26.4,39.4 27.1,40.7 28.1,39.9 28.3,39.8 28.9,39.6 29.2,39.5 29.6,39.2 29.8,38.8 
		30.1,38.1 30.3,37.7 30.3,37.3 30.3,37.1 30.1,36.5 30.1,36.2 30.2,35.8 30.7,34.4 30.8,34 30.8,32.6 31,32.3 31.4,32.1 31.9,32 
		33.8,32.2 34.4,32.8 34.5,33 34.8,33.7 34.7,34.3 34.4,35 34.2,35.3 34,35.6 33.4,36.1 32.6,36.6 32,37.1 32,37.2 31.9,37.4 
		32,37.8 32.2,38 32.8,38.2 33.3,38.3 34.2,38.2 34.6,38.2 35,38.3 35.6,39 36,39.3 36.9,39.7 37.3,39.9 37.5,40.4 37.6,40.7 
		37.5,41.1 37.2,41.8 37.2,42.2 37.1,42.6 37.2,42.9 37.3,43.3 37.5,44 37.6,44.4 37.6,44.8 37.6,45.2 37.6,45.5 37.8,45.8 
		38.4,45.9 40.6,45.9 41.1,45.8 42.9,45.1 44.1,44.4 45.3,42.1 48.9,40 49.8,39.4 51.5,37.7 52.3,36.6 52.7,35.8 52.8,35.4 
		52.9,33.6 53,33.2 53.2,32.9 54.8,31.9 60.9,29.4 60.8,27.5 61,25.7 61.1,25.3 61.7,24 61.8,23.6 61.8,23.3 61.6,23 61.2,22.7 
		60.8,22.5 60.3,22.4 60,22.3 59.7,22.1 59.1,21.6 58.9,21.3 58.7,20.8 58.5,19.4 58.5,17.3 58,15.8 56.9,13.2 56.1,12.1 55.9,11.7 
		55.9,11.3 55.9,10.9 56.2,10.3 56.7,9.6 59.4,6.4 59.9,5.2 59.9,3.3 63.4,-4.9 63.8,-5.4 66.5,-8.1 67.1,-8.6 67.4,-8.9 67.6,-9.2 
		67.7,-10.4 	"/>
	<polygon id="Cuzco_3_" class="st1" points="291.3,133.1 291.4,131.8 292.3,127.8 291.1,127.5 290,127.4 288.1,127.6 286.5,127.2 
		285.4,127.2 284.9,127.3 284.5,127.4 284.3,128 284.5,128.4 284.9,128.8 285.3,129.1 286.2,129.7 286.5,130.1 286.5,130.5 
		286,130.9 285.3,131.1 280.9,131.4 271.1,129.6 270.1,129.7 269,129.6 268.4,129.4 264,126.5 263.5,126.3 258.1,124.8 254.4,123.3 
		253.8,123 252.9,122.4 252.5,122.2 252.1,122 251.4,122 249.5,122.2 248.9,122.2 248.1,122.1 241.5,120 240.6,119.6 239.5,118.8 
		239,117.9 238.1,116.1 237.8,115.5 237.5,114.9 237.5,114 237.7,113.3 238.3,111.8 238.3,110.9 238,109.8 237.5,108.1 236.4,105.3 
		235.6,103.7 235.3,103.2 234.9,102.7 234.5,102.5 234.2,102.4 233.7,102.2 233.2,102.2 232.1,102 231.1,101.6 230.7,101.2 
		230.4,100.7 230,100.2 229.1,96.4 228.7,95.7 228.4,95.1 227.9,94.7 225.4,93.5 222.5,91.7 221.9,91 221.7,90.9 221.7,90.7 
		221.5,90.4 220.9,87.3 220.9,86.8 221.2,85.5 221.5,84.5 222,82.2 222.1,80.8 222.8,78.9 227.3,70.2 227.9,68.4 228.1,66.2 
		227.5,65.9 227.2,65.9 226.7,65.9 225.8,66.2 225.4,66.2 225,66 224.3,65.5 224,65.5 223.8,65.6 221.3,66.3 220,66.8 219.4,67.3 
		218.1,68.5 217.7,68.7 216.9,69.1 216.6,69.3 216.2,69.5 216,69.7 215.7,70 215.3,70.2 214.1,70.3 212.6,70 212.1,69.9 211.8,69.7 
		210.9,69.1 210.6,68.9 210.2,68.9 209.9,68.7 209.7,68.4 209.6,68 209.5,67.7 209.1,67.5 208.4,67.6 208.1,67.8 207.7,68 
		207.4,68.2 207,68.2 206.6,68.1 205.5,68.2 205,68.1 204.2,67.3 203.9,67.2 202.4,66.7 201.5,66 201.4,65.7 201.3,64.9 201.1,64.7 
		200.7,64.1 200.5,63.8 200.3,63.5 200.2,63.1 200.1,62.7 199.9,62.4 199.6,62.1 199.2,62.2 198.9,62.5 197.6,64.3 197.4,64.5 
		197,64.7 195.9,65.2 194.5,65.5 190,66.1 187.5,66.1 186.5,66.3 185,66.8 183.9,66.6 183.6,67.6 182.1,71 180,74 176.8,76.7 
		175.6,77.5 175.3,77.7 175.2,78 175.2,78.4 175.5,78.6 175.8,78.6 176.6,78.6 177,78.6 177.4,78.8 178.7,79.4 179.8,79.6 
		180.1,79.8 180.7,80.2 181.7,80.9 181.8,81.1 182,81.4 182.1,81.7 182.1,82.1 182.1,82.7 181.6,85.8 181.5,86.1 178.1,91.2 
		178,91.5 177.8,92.3 177.8,92.6 177.9,94.2 177.8,94.9 177.7,95.7 177.4,96.5 176.8,97.8 176.6,98.1 176.1,98.6 175.8,98.8 
		175.5,99 174.4,99.5 170.2,100.6 169,100.8 165.4,100.8 166.4,102.5 167.7,104.2 168,104.6 168.1,105.5 168.3,106 168.7,106.5 
		168.9,106.7 169,107 169.1,107.6 168.9,108.6 169,109 169.7,109.2 170,109.4 170.2,109.9 170.5,110.9 172.4,113.5 172.9,113.9 
		173,113.7 173.1,113.4 173.1,113.2 173.7,113.5 175.4,115.3 175.7,115.8 176,117 176.3,117.6 176.8,118.5 176.9,118.9 177.1,120.2 
		177.4,121.6 177.6,121.8 177.8,122.1 178.1,122.7 178.6,124.6 178.8,124.9 179,125 179.4,125.2 179.6,125.4 179.7,125.7 
		179.5,125.8 179.2,126.4 179.9,129.2 179.4,130 179.4,130.2 180,130.5 181.2,131.2 181.7,131.6 182.5,133 182.7,133.2 183.8,133.6 
		184.8,134.5 186.6,136.7 187.5,138.3 188.2,139.1 188.3,139.5 188.6,139.8 190.3,140.9 191.2,141.8 191.5,142.1 192.7,142.5 
		193,142.7 193.3,142.8 193.5,142.7 193.8,142.5 194,142.4 194.7,142.7 195.2,143.2 195.8,143.5 196.7,143 197.3,142.4 197.5,142.3 
		198,142.1 198.1,142.2 198.5,142.4 198.7,142.4 198.9,142.3 199,142.3 200,141.5 200.5,141.3 201.7,141.1 202.6,141.2 202.8,141.3 
		202.9,141.6 203,142 203.2,142.3 203.4,142.4 204.8,142.4 206.2,142.6 207.3,143.2 209.6,145.1 212.2,146.5 212.6,146.6 
		212.9,146.7 213.1,147.2 213.5,147.3 215,147.4 216.3,147.8 216.5,147.9 216.7,148.1 216.9,148.3 217.4,148.3 218.8,148.3 
		219.3,148.5 219.7,149 220.4,150.1 220.2,150.3 220.6,150.8 221.2,151.3 222.6,152.1 223.1,152.2 224.9,152.1 225.1,152.3 
		226.2,153.1 226.4,153.2 226.7,153.6 228.6,155.3 229.1,156.1 229.5,156.9 230.3,158.4 230.5,158.8 231.1,159.8 231.5,160.8 
		231.5,167.1 230.5,171 230.1,171.6 229.9,172 229.7,172.2 228.5,173 228.2,173.2 228,173.5 227.1,174.6 226.3,175.5 225.9,176 
		225,177.9 224.6,178.2 223.4,178.6 222.9,178.8 222.3,179 221.6,179.1 221.2,179.3 220.9,179.6 220.7,180 220.4,180.4 219.9,180.9 
		219.3,181.1 218.5,181.3 218,181.6 217.6,181.8 217.3,182.2 217,182.6 216.8,182.9 216.7,183.3 216.7,183.7 216.8,184.1 217.3,185 
		217.5,185.4 217.5,185.8 217.5,186.7 217.3,187.6 217.3,188.2 217.1,188.9 217.1,189.2 217.2,189.5 217.4,189.9 219.6,192.7 
		220.4,193.2 222.7,193.7 225,193.1 226,193 226.8,192.9 227.6,192.6 228.4,192.1 228.8,192.1 229.3,192.2 229.6,192.3 229.9,192.6 
		230,192.9 230.5,194 230.6,194.4 230.8,194.7 231,194.9 231.3,195.1 231.7,195.2 232,195 232.9,193.7 233,193.4 233,193 
		233.1,192.6 233.5,191.9 233.6,191.5 233.6,190.8 233.6,190.4 233.5,190 233.3,189.7 232.9,189.1 232.8,188.8 232.8,188.4 
		232.9,188 233.1,187.7 233.4,187.5 233.7,187.4 234,187.4 234.3,187.5 234.5,187.6 234.8,187.7 235.5,188.5 237.2,191 237.9,191.9 
		238.3,193.1 238.5,193.4 238.7,193.7 239.1,194 239.5,194.2 240.2,194.4 240.7,194.4 241.1,194.6 241.3,194.8 241.2,195.2 
		241.1,195.5 240.9,195.8 240.6,196 239.9,196.3 239.7,196.5 239.5,196.8 239.4,197.2 239.8,199.1 239.8,199.5 239.8,199.7 
		239.7,200 239.3,200.7 239.3,201 239.7,201.5 240.6,201.9 245,203 245.4,203.2 245.8,203.5 246.2,203.6 246.5,203.5 247.4,202.8 
		248,202.5 248.3,202.4 249.1,202.2 249.6,202.2 250.4,202.3 250.8,202.3 251.2,202.2 251.6,202.1 251.8,201.8 251.9,201.5 
		251.8,201.2 251.7,200.9 251.6,200.5 251.6,200.2 251.9,200.1 252.3,200.1 253.4,201 254,201.2 254.8,201 255.2,201.2 255.8,201.5 
		257.8,203.4 258.2,203.6 258.7,203.7 259.1,203.7 259.4,203.5 260.4,202.5 260.7,202.3 261,202.1 261.4,202 261.7,202 262,202.1 
		262.4,202.3 262.7,202.5 263,202.8 263.2,203.2 263.5,203.8 263.6,204.2 263.6,204.7 263.4,205.5 263.3,207 263.4,207.4 
		263.6,207.7 264.2,208 265.1,208.3 265.7,208.6 266.7,209.4 267.2,210 268,211.1 268.6,211.6 269,211.3 269.3,211.2 269.8,211 
		270.1,210.9 270.3,210.5 270.4,210 270.5,207.1 270.2,205.8 269.9,204.9 269.6,204.3 269.4,204 269.3,203.6 269.2,203.1 
		269.3,202.3 269.4,201.8 269.6,201.2 269.6,201.1 269.6,200.9 269.1,200.1 269.1,199 269.4,198.4 270.2,197.1 270.2,196.6 
		270.1,195.9 269.7,194.7 269.6,194 269.6,193.5 270,191.9 269.9,191.4 269.6,191 268.9,190.6 268.4,190.6 267.9,190.6 267.6,190.6 
		267.2,190.4 266.9,190.1 266.3,189.4 265.5,188.2 265.3,187.9 265.2,187.5 265.2,187.2 265.4,186.7 266.1,186.5 267,186.4 
		267.4,186.4 267.7,186.1 268.1,185.8 268.5,185.3 269.2,184.7 269.4,184.5 269.8,184.2 270,183.9 270.1,183.6 270,183.2 
		269.7,182.5 269.5,181.9 269.7,180.9 270.4,179.2 270.7,178.9 271,178.7 272.8,178.8 273.2,178.5 273.3,178.3 273.5,178 
		274.7,173.5 275.3,172.2 275.6,171.3 276.4,166.5 276.3,165.7 276,164.9 275.5,164.5 275.1,164 274.9,163.5 275.6,160.5 
		275.7,158.6 276.1,156.8 276.6,156.5 279.4,156 280.4,155.7 280.8,155.4 281.4,154.4 284.7,146.4 285.8,144.5 286.3,143.8 287,143 
		288,142.1 290.1,139.9 290.7,139.1 291.5,137.1 291.8,136.1 291.8,135.7 291.8,135.3 	"/>
	<g class="st2">
		<g>
			<path class="st3" d="M208.6,127.2c0,0,0.2-0.1,0.5-0.1"/>
			<path class="st4" d="M211.1,126.6c7.7-1.6,31.3-4.6,38.2,19.3"/>
			<path class="st3" d="M249.5,146.9c0,0.2,0.1,0.3,0.1,0.5"/>
		</g>
	</g>
	<g class="st2">
		<g>
			<path class="st3" d="M249.1,148.3c0,0-0.2,0.1-0.5,0.1"/>
			<path class="st5" d="M246.8,148.9c-7.4,1.6-30.1,4.4-36.6-18.5"/>
			<path class="st3" d="M209.9,129.4c0-0.2-0.1-0.3-0.1-0.5"/>
		</g>
	</g>
	<g class="st2">
		<path class="st6" d="M209.5,115.3c1.4,0,2.6,0.6,3.5,1.4l0,0c0.9,0.9,1.4,2.1,1.4,3.5c0,0.6-0.1,1.1-0.3,1.6
			c-0.2,0.5-0.4,1-0.7,1.4l0,0.1l-3.7,5.5l-0.3,0.4l-0.3-0.4l-3.7-5.5l0-0.1c-0.3-0.4-0.6-0.9-0.7-1.4c-0.2-0.5-0.3-1-0.3-1.6
			c0-1.4,0.6-2.6,1.4-3.5l0,0C206.9,115.8,208.1,115.3,209.5,115.3z"/>
	</g>
	<g class="st2">
		<polygon class="st7" points="110.5,114.1 109.1,113.4 108.9,113.2 108.7,112.8 108.6,112.2 108.9,111.1 109.4,109.8 109.6,109 
			109.9,105.9 109.5,104.5 109.1,104 106.6,98.7 106.1,98 106,97.3 106.7,96 106.5,95.4 106.3,95.1 104.6,93.7 101.9,92.7 101,92.1 
			100.7,91.9 100.4,91.7 97.6,90.4 97.1,90.3 96.4,90.4 95.9,90.5 94.2,91.3 93.6,91.4 93.2,91.4 92.7,90.9 92.4,90.5 91.1,87.4 
			89.9,86.4 89.2,86 88.9,85.7 88.7,85.4 88.5,84.3 88.2,83.8 86.6,82.3 86.4,81.9 86.3,81.4 86.2,79.9 85.9,78.3 85.9,76.7 
			85.9,76.3 85.7,76 85.3,75.7 84.5,75.4 84.1,75.5 83.5,75.9 83.2,75.9 82.8,75.4 82.5,75.1 81.6,74.6 81.2,74.3 80.9,73.8 
			80.4,73 79.2,69.4 79.1,68.6 78.7,67.9 76.9,66.1 76.6,64.6 76.3,60.9 76.5,58.4 76.6,58 76.5,57.5 76.2,56.6 75.7,56.1 74,55 
			73.8,54.7 73.7,54.4 73.6,53.9 73.7,51.9 73.5,48.8 73,48 72,46.8 71.2,45.7 70.8,43.4 70.6,42.9 70.4,42.3 69.4,40.6 69.1,40 
			68.5,37.2 68.2,36.5 67.3,35 66.6,35 66.4,34.9 65.1,34.1 64.8,33.3 64.7,32.5 64.5,32.1 64.1,31.8 63.4,31.5 62.8,31.5 
			62.4,31.6 62,31.5 61.6,31.3 61.2,30.9 61.1,30.6 60.9,29.4 54.8,31.9 53.2,32.9 53,33.2 52.9,33.6 52.8,35.4 52.7,35.8 
			52.3,36.6 51.5,37.7 49.8,39.4 48.9,40 45.3,42.1 44.1,44.4 42.9,45.1 41.1,45.8 40.6,45.9 38.4,45.9 37.8,45.8 37.6,45.5 
			37.6,45.2 37.6,44.8 37.6,44.4 37.5,44 37.3,43.3 37.2,42.9 37.1,42.6 37.2,42.2 37.2,41.8 37.5,41.1 37.6,40.7 37.5,40.4 
			37.3,39.9 36.9,39.7 36,39.3 35.6,39 35,38.3 34.6,38.2 34.2,38.2 33.3,38.3 32.8,38.2 32.2,38 32,37.8 31.9,37.4 32,37.2 
			32,37.1 32.6,36.6 33.4,36 34,35.6 34.2,35.3 34.4,35 34.7,34.3 34.8,33.7 34.5,33 34.4,32.8 33.8,32.2 31.9,32 31.4,32.1 
			31,32.3 30.8,32.6 30.8,34 30.7,34.4 30.2,35.8 30.1,36.2 30.1,36.5 30.3,37.1 30.3,37.3 30.3,37.7 30.1,38.1 29.8,38.8 
			29.6,39.2 29.2,39.5 28.9,39.6 28.3,39.8 28.1,39.9 27.1,40.7 28.6,43.2 29.4,43.9 29.7,44.2 29.9,44.6 30.1,45 30.6,45.4 
			31.6,46.4 31.6,46.7 32.2,47.5 32,47.8 32,48.3 32.6,48.9 33.5,49.6 33.4,50.2 34,51 34.5,51.7 34.9,52.3 35.1,53 35.1,53.5 
			35.4,54.1 35.7,54.8 35.4,55.2 35.2,55.5 35.9,56.3 36.2,57 36,57.3 36.4,57.9 36.2,58.3 36.9,59.1 36.7,59.5 37.1,60 37.6,60.9 
			37.6,61.8 37.4,62.4 37,62.5 36.7,62.7 36.3,62.6 36,62.6 35.7,62.9 35.8,63.2 35.5,63.4 35.7,64.1 35.8,65 35.7,65.4 36.2,65.8 
			37.1,66.5 42.5,69.4 43.7,70.4 45.2,71.1 45.8,71.5 46.2,72.1 46.5,72.4 46.9,72.5 47.2,72.7 47.5,73.1 48,74 48.6,74.7 
			48.7,74.9 48.7,75.2 48.5,75.6 48.6,75.8 49.2,76.6 49.6,77 50,77.2 50.5,77.4 51.1,78.1 51.5,79 51.5,79.4 51.6,79.8 52.5,81.4 
			52.6,82.1 52.2,82.6 51.6,82.5 51.6,82.8 52.1,83.7 51.9,84.6 52.1,85.3 52.6,86.2 52.8,86.5 53.1,87.6 53.3,88.4 53.5,90.8 
			53.5,90.8 53.4,91.7 53,92.3 52.6,92.8 52.3,93.4 53.8,93.6 54.5,93.8 54.5,93.8 55.4,94.1 56.6,95 57.1,96.4 57.1,96.8 56.9,97 
			56.8,97.4 56.9,97.9 57.1,98.2 57.7,98.8 57.9,99 58.3,99 60.3,99.9 63.6,101.7 64.6,103.5 65.8,104.6 66.1,105.9 65.8,107.3 
			65.1,108.2 65.6,109.2 66.2,109.7 67.8,110.7 68.9,112.3 69.4,112.8 69.7,113.2 69.7,113.5 69.7,114.5 70,114.9 71.5,117.9 
			72.2,118.7 74.6,120.8 75,121.3 75.5,122.2 75.7,123.7 75.5,125 75.9,126.5 76.4,127.3 76.7,128.2 77.8,129.5 80.6,133.2 
			82.9,136.2 84,137.3 84.9,138.5 86.6,137.3 87.1,136.5 88.4,134 88.7,133.6 93.8,129.5 94.1,129.1 94.3,128.7 94.8,127.5 
			95.1,127.1 95.4,126.9 95.6,126.9 95.7,126.9 95.8,126.9 95.9,127 97.6,127.8 98.4,128 100.8,127.9 104.1,127.5 104.6,127.3 
			105.6,126.7 106.5,126.2 107,124.9 107.4,122.7 107.7,122.1 108,121.7 109.2,120.9 110.7,119.5 111.6,118.3 112.4,116.6 
			112.4,115.6 		"/>
	</g>
	<g class="st2">
		<g>
			<path class="st3" d="M247.6,152.2c-0.1,0.1-0.3,0.2-0.4,0.3"/>
			<path class="st8" d="M245.5,153.5c-101.4,61-177.6-45.4-186.6-57.9"/>
			<path class="st3" d="M58.3,94.8c-0.2-0.3-0.3-0.4-0.3-0.4"/>
		</g>
	</g>
	<path class="st9" d="M57.1,86.9c0,0,145.7-73.6,192.5,60.5"/>
	<g class="st2">
		<path class="st6" d="M57.3,78.4c1.4,0,2.6,0.6,3.5,1.4l0,0c0.9,0.9,1.4,2.1,1.4,3.5c0,0.6-0.1,1.1-0.3,1.6s-0.4,1-0.7,1.4l0,0.1
			l-3.7,5.5l-0.3,0.4L57,91.9l-3.7-5.5l0-0.1c-0.3-0.4-0.6-0.9-0.7-1.4s-0.3-1-0.3-1.6c0-1.4,0.6-2.6,1.4-3.5l0,0
			C54.7,79,55.9,78.4,57.3,78.4z"/>
	</g>
	<g class="st2">
		<path class="st6" d="M249.1,135c1.4,0,2.6,0.6,3.5,1.4l0,0c0.9,0.9,1.4,2.1,1.4,3.5c0,0.6-0.1,1.1-0.3,1.6c-0.2,0.5-0.4,1-0.7,1.4
			l0,0.1l-3.7,5.5l-0.3,0.4l-0.3-0.4l-3.7-5.5l0-0.1c-0.3-0.4-0.6-0.9-0.7-1.4c-0.2-0.5-0.3-1-0.3-1.6c0-1.4,0.6-2.6,1.4-3.5l0,0
			C246.5,135.5,247.7,135,249.1,135z"/>
	</g>
	<g class="st2">
		<path class="st6" d="M235.5,116.4c1.4,0,2.6,0.6,3.5,1.4l0,0c0.9,0.9,1.4,2.1,1.4,3.5c0,0.6-0.1,1.1-0.3,1.6
			c-0.2,0.5-0.4,1-0.7,1.4l0,0.1l-3.7,5.5l-0.3,0.4l-0.3-0.4l-3.7-5.5l0-0.1c-0.3-0.4-0.6-0.9-0.7-1.4c-0.2-0.5-0.3-1-0.3-1.6
			c0-1.4,0.6-2.6,1.4-3.5l0,0C232.9,117,234.1,116.4,235.5,116.4z"/>
	</g>
	<path class="st10" d="M165.6,159.1c0.1-0.6-0.3-1.2-0.9-1.3l-3.1-0.5l-2.5-5.3c0,0-0.1-0.1-0.1-0.1l-0.8-0.1c0,0-0.1,0-0.1,0
		c0,0,0,0.1,0,0.1l0.8,5l-3.1-0.1l-0.7-1.6c0,0-0.1-0.1-0.1-0.1l-0.6-0.1c0,0-0.1,0-0.1,0c0,0,0,0.1,0,0.1l0.2,1.6l-0.8,0.1
		c-0.1,0-0.1,0.1-0.1,0.1c0,0,0,0.1,0,0.1c0,0,0,0,0,0l0.7,0.4l-0.7,1.4c0,0,0,0.1,0,0.1c0,0,0,0,0,0c0,0,0.1,0,0.1,0.1l0.6,0.1
		c0,0,0.1,0,0.1,0l1.2-1.2l3,0.9l-2.4,4.5c0,0,0,0.1,0,0.1c0,0,0,0,0,0c0,0,0.1,0,0.1,0.1l0.8,0.1c0,0,0.1,0,0.1,0l4.1-4.2l3.1,0.5
		C164.9,160.1,165.5,159.7,165.6,159.1z"/>
	<path class="st10" d="M132.6,77c0,0.6,0.4,1.1,1,1.1l3.1,0.1l3.1,5c0,0,0.1,0.1,0.1,0.1l0.8,0c0,0,0.1,0,0.1-0.1c0,0,0-0.1,0-0.1
		l-1.4-4.9l3.1-0.2l0.9,1.5c0,0,0.1,0.1,0.1,0.1l0.6,0c0,0,0.1,0,0.1-0.1c0,0,0-0.1,0-0.1l-0.4-1.5l0.8-0.2c0.1,0,0.1-0.1,0.1-0.1
		c0,0,0-0.1,0-0.1c0,0,0,0-0.1,0l-0.7-0.3l0.5-1.5c0,0,0-0.1,0-0.1c0,0,0,0,0,0c0,0-0.1,0-0.1,0l-0.6,0c0,0-0.1,0-0.1,0.1l-1.1,1.4
		l-3.1-0.5l1.8-4.7c0,0,0-0.1,0-0.1c0,0,0,0,0,0c0,0-0.1,0-0.1,0l-0.8,0c0,0-0.1,0-0.1,0.1l-3.6,4.7l-3.1-0.1
		C133.2,76,132.7,76.4,132.6,77z"/>
</g>
<path class="st11" d="M40.2,97.6h-6.8c-5.1,0-9.2-4.2-9.2-9.2v0c0-5.1,4.2-9.2,9.2-9.2h6.8c5.1,0,9.2,4.2,9.2,9.2v0
	C49.4,93.4,45.3,97.6,40.2,97.6z"/>
<g>
	<path class="st12" d="M32.5,85.8L32.5,85.8l-1.3,0.7L31,85.8l1.6-0.8h0.8v7.2h-0.9V85.8z"/>
	<path class="st12" d="M35.7,93.4c0.2-0.6,0.5-1.8,0.7-2.6l1.1-0.1c-0.3,0.9-0.7,2.2-1,2.7L35.7,93.4z"/>
	<path class="st12" d="M42.4,85.6c-0.2,0-0.5,0-0.7,0c-1.5,0.3-2.3,1.4-2.5,2.5h0c0.3-0.5,0.9-0.8,1.7-0.8c1.3,0,2.2,0.9,2.2,2.3
		c0,1.3-0.9,2.5-2.4,2.5c-1.5,0-2.5-1.2-2.5-3c0-1.4,0.5-2.5,1.2-3.2c0.6-0.6,1.4-0.9,2.3-1.1c0.3,0,0.5-0.1,0.7-0.1V85.6z
		 M42.1,89.7c0-1-0.6-1.6-1.5-1.6c-0.6,0-1.1,0.4-1.4,0.9c-0.1,0.1-0.1,0.3-0.1,0.4c0,1.2,0.6,2,1.6,2
		C41.6,91.4,42.1,90.7,42.1,89.7z"/>
</g>
<g>
	<path class="st13" d="M25,101.5h1v7.2h3.5v0.9H25V101.5z"/>
	<path class="st13" d="M31.8,102.2c0,0.4-0.3,0.6-0.7,0.6c-0.4,0-0.6-0.3-0.6-0.6c0-0.4,0.3-0.7,0.7-0.7
		C31.6,101.5,31.8,101.8,31.8,102.2z M30.6,109.6v-5.8h1.1v5.8H30.6z"/>
	<path class="st13" d="M33.4,105.4c0-0.6,0-1.1,0-1.6h0.9l0,0.9h0c0.3-0.6,0.9-1.1,1.8-1.1c0.8,0,1.4,0.5,1.6,1.2h0
		c0.2-0.3,0.4-0.6,0.6-0.8c0.3-0.3,0.7-0.4,1.3-0.4c0.8,0,1.9,0.5,1.9,2.5v3.4h-1v-3.3c0-1.1-0.4-1.8-1.3-1.8c-0.6,0-1.1,0.4-1.2,1
		c0,0.1-0.1,0.3-0.1,0.5v3.6h-1v-3.5c0-0.9-0.4-1.6-1.2-1.6c-0.7,0-1.1,0.5-1.3,1.1c-0.1,0.2-0.1,0.3-0.1,0.5v3.5h-1V105.4z"/>
	<path class="st13" d="M46.7,109.6l-0.1-0.7h0c-0.3,0.5-0.9,0.9-1.8,0.9c-1.2,0-1.8-0.8-1.8-1.7c0-1.4,1.2-2.2,3.5-2.2v-0.1
		c0-0.5-0.1-1.3-1.3-1.3c-0.5,0-1.1,0.2-1.5,0.4l-0.2-0.7c0.5-0.3,1.2-0.5,1.9-0.5c1.8,0,2.2,1.2,2.2,2.4v2.2c0,0.5,0,1,0.1,1.4
		H46.7z M46.5,106.7c-1.2,0-2.5,0.2-2.5,1.3c0,0.7,0.5,1,1,1c0.8,0,1.2-0.5,1.4-1c0-0.1,0.1-0.2,0.1-0.3V106.7z"/>
</g>
<path class="st11" d="M190.6,129.8h-1c-5.6,0-10.2-4.6-10.2-10.2v0c0-5.6,4.6-10.2,10.2-10.2h1c5.6,0,10.2,4.6,10.2,10.2v0
	C200.8,125.2,196.2,129.8,190.6,129.8z"/>
<g>
	<path class="st12" d="M191.8,116.8H189l-0.3,1.8c0.2,0,0.3,0,0.6,0c0.5,0,1.1,0.1,1.5,0.4c0.6,0.3,1,0.9,1,1.8
		c0,1.4-1.1,2.4-2.7,2.4c-0.8,0-1.4-0.2-1.8-0.4l0.2-0.7c0.3,0.2,0.9,0.4,1.5,0.4c0.9,0,1.7-0.6,1.7-1.6c0-0.9-0.6-1.6-2.1-1.6
		c-0.4,0-0.7,0-1,0.1l0.5-3.4h3.4V116.8z"/>
</g>
<g>
	<path class="st13" d="M156.7,102.5c-0.1-1.1-0.1-2.5-0.1-3.5h0c-0.3,0.9-0.6,2-1,3.1l-1.4,3.9h-0.8l-1.3-3.8
		c-0.4-1.1-0.7-2.2-0.9-3.1h0c0,1-0.1,2.4-0.2,3.6l-0.2,3.5h-1l0.6-8.1h1.3l1.4,3.9c0.3,1,0.6,1.9,0.8,2.7h0
		c0.2-0.8,0.5-1.7,0.9-2.7l1.4-3.9h1.3l0.5,8.1h-1L156.7,102.5z"/>
	<path class="st13" d="M162.8,106l-0.1-0.7h0c-0.3,0.5-0.9,0.9-1.8,0.9c-1.2,0-1.8-0.8-1.8-1.7c0-1.4,1.2-2.2,3.5-2.2v-0.1
		c0-0.5-0.1-1.3-1.3-1.3c-0.5,0-1.1,0.2-1.5,0.4l-0.2-0.7c0.5-0.3,1.2-0.5,1.9-0.5c1.8,0,2.2,1.2,2.2,2.4v2.2c0,0.5,0,1,0.1,1.4
		H162.8z M162.7,103.1c-1.2,0-2.5,0.2-2.5,1.3c0,0.7,0.5,1,1,1c0.8,0,1.2-0.5,1.4-1c0-0.1,0.1-0.2,0.1-0.3V103.1z"/>
	<path class="st13" d="M169.5,105.8c-0.3,0.1-0.9,0.3-1.7,0.3c-1.8,0-2.9-1.2-2.9-3c0-1.8,1.2-3.1,3.1-3.1c0.6,0,1.2,0.2,1.5,0.3
		l-0.2,0.8c-0.3-0.1-0.6-0.3-1.2-0.3c-1.3,0-2.1,1-2.1,2.2c0,1.3,0.9,2.2,2,2.2c0.6,0,1-0.2,1.3-0.3L169.5,105.8z"/>
	<path class="st13" d="M170.8,97.5h1.1v3.6h0c0.2-0.3,0.4-0.6,0.8-0.7c0.3-0.2,0.7-0.3,1.1-0.3c0.8,0,2,0.5,2,2.5v3.5h-1.1v-3.3
		c0-0.9-0.3-1.7-1.3-1.7c-0.7,0-1.2,0.5-1.4,1.1c-0.1,0.1-0.1,0.3-0.1,0.5v3.5h-1.1V97.5z"/>
	<path class="st13" d="M182.3,104.4c0,0.6,0,1.1,0,1.6h-0.9l-0.1-0.9h0c-0.3,0.5-0.9,1.1-1.9,1.1c-0.9,0-2-0.5-2-2.5v-3.4h1.1v3.2
		c0,1.1,0.3,1.8,1.3,1.8c0.7,0,1.2-0.5,1.4-1c0.1-0.2,0.1-0.3,0.1-0.5v-3.6h1.1V104.4z"/>
	<path class="st13" d="M186.6,98c0.5-0.1,1.2-0.2,2-0.2c1,0,1.8,0.2,2.3,0.7c0.4,0.4,0.7,1,0.7,1.7c0,0.7-0.2,1.3-0.6,1.7
		c-0.6,0.6-1.5,0.9-2.5,0.9c-0.3,0-0.6,0-0.8-0.1v3.2h-1V98z M187.7,101.9c0.2,0.1,0.5,0.1,0.9,0.1c1.3,0,2-0.6,2-1.7
		c0-1.1-0.8-1.6-1.9-1.6c-0.5,0-0.8,0-1,0.1V101.9z"/>
	<path class="st13" d="M194,98.6c0,0.4-0.3,0.6-0.7,0.6c-0.4,0-0.6-0.3-0.6-0.6c0-0.4,0.3-0.7,0.7-0.7C193.7,97.9,194,98.2,194,98.6
		z M192.8,106v-5.8h1.1v5.8H192.8z"/>
	<path class="st13" d="M199.7,105.8c-0.3,0.1-0.9,0.3-1.7,0.3c-1.8,0-2.9-1.2-2.9-3c0-1.8,1.2-3.1,3.1-3.1c0.6,0,1.2,0.2,1.5,0.3
		l-0.2,0.8c-0.3-0.1-0.6-0.3-1.2-0.3c-1.3,0-2.1,1-2.1,2.2c0,1.3,0.9,2.2,2,2.2c0.6,0,1-0.2,1.3-0.3L199.7,105.8z"/>
	<path class="st13" d="M205,105.8c-0.3,0.1-0.9,0.3-1.7,0.3c-1.8,0-2.9-1.2-2.9-3c0-1.8,1.2-3.1,3.1-3.1c0.6,0,1.2,0.2,1.5,0.3
		l-0.2,0.8c-0.3-0.1-0.6-0.3-1.2-0.3c-1.3,0-2.1,1-2.1,2.2c0,1.3,0.9,2.2,2,2.2c0.6,0,1-0.2,1.3-0.3L205,105.8z"/>
	<path class="st13" d="M206.3,97.5h1.1v3.6h0c0.2-0.3,0.4-0.6,0.8-0.7c0.3-0.2,0.7-0.3,1.1-0.3c0.8,0,2,0.5,2,2.5v3.5h-1.1v-3.3
		c0-0.9-0.3-1.7-1.3-1.7c-0.7,0-1.2,0.5-1.4,1.1c-0.1,0.1-0.1,0.3-0.1,0.5v3.5h-1.1V97.5z"/>
	<path class="st13" d="M217.8,104.4c0,0.6,0,1.1,0,1.6h-0.9l-0.1-0.9h0c-0.3,0.5-0.9,1.1-1.9,1.1c-0.9,0-2-0.5-2-2.5v-3.4h1.1v3.2
		c0,1.1,0.3,1.8,1.3,1.8c0.7,0,1.2-0.5,1.4-1c0.1-0.2,0.1-0.3,0.1-0.5v-3.6h1.1V104.4z"/>
</g>
<g>
	<g>
		<path class="st13" d="M262.3,171.9c-0.4,0.2-1.2,0.4-2.1,0.4c-2.3,0-4-1.4-4-4.1c0-2.5,1.7-4.2,4.2-4.2c1,0,1.6,0.2,1.9,0.4
			l-0.3,0.9c-0.4-0.2-1-0.3-1.6-0.3c-1.9,0-3.2,1.2-3.2,3.3c0,2,1.1,3.2,3.1,3.2c0.6,0,1.3-0.1,1.7-0.3L262.3,171.9z"/>
		<path class="st13" d="M268.2,170.5c0,0.6,0,1.1,0,1.6h-0.9l-0.1-0.9h0c-0.3,0.5-0.9,1.1-1.9,1.1c-0.9,0-2-0.5-2-2.5v-3.4h1.1v3.2
			c0,1.1,0.3,1.8,1.3,1.8c0.7,0,1.2-0.5,1.4-1c0.1-0.2,0.1-0.3,0.1-0.5v-3.6h1.1V170.5z"/>
		<path class="st13" d="M269.9,171c0.3,0.2,0.9,0.4,1.4,0.4c0.8,0,1.1-0.4,1.1-0.9c0-0.5-0.3-0.8-1.1-1.1c-1-0.4-1.5-0.9-1.5-1.6
			c0-0.9,0.8-1.7,2-1.7c0.6,0,1.1,0.2,1.4,0.4l-0.3,0.8c-0.2-0.1-0.6-0.3-1.2-0.3c-0.6,0-1,0.4-1,0.8c0,0.5,0.3,0.7,1.1,1
			c1,0.4,1.5,0.9,1.5,1.8c0,1-0.8,1.7-2.2,1.7c-0.6,0-1.2-0.2-1.6-0.4L269.9,171z"/>
		<path class="st13" d="M278.9,171.9c-0.3,0.1-0.9,0.3-1.7,0.3c-1.8,0-2.9-1.2-2.9-3c0-1.8,1.2-3.1,3.1-3.1c0.6,0,1.2,0.2,1.5,0.3
			l-0.2,0.8c-0.3-0.1-0.6-0.3-1.2-0.3c-1.3,0-2.1,1-2.1,2.2c0,1.3,0.9,2.2,2,2.2c0.6,0,1-0.2,1.3-0.3L278.9,171.9z"/>
		<path class="st13" d="M285.3,169.2c0,2.1-1.5,3.1-2.9,3.1c-1.6,0-2.8-1.2-2.8-3c0-1.9,1.3-3.1,2.9-3.1
			C284.2,166.2,285.3,167.4,285.3,169.2z M280.7,169.2c0,1.3,0.7,2.2,1.8,2.2c1,0,1.8-0.9,1.8-2.3c0-1-0.5-2.2-1.7-2.2
			S280.7,168.1,280.7,169.2z"/>
	</g>
</g>
<path class="st11" d="M278.9,160.5h-16c-5.5,0-10-4.5-10-10v0c0-5.5,4.5-10,10-10h16c5.5,0,10,4.5,10,10v0
	C288.9,156,284.4,160.5,278.9,160.5z"/>
<g>
	<path d="M260.7,154.5v-0.6l0.8-0.7c1.8-1.7,2.7-2.7,2.7-3.7c0-0.7-0.4-1.4-1.4-1.4c-0.6,0-1.2,0.3-1.5,0.6l-0.3-0.7
		c0.5-0.4,1.2-0.7,2-0.7c1.5,0,2.2,1.1,2.2,2.1c0,1.3-1,2.4-2.5,3.8l-0.6,0.5v0h3.2v0.8H260.7z"/>
	<path d="M266,155.9c0.2-0.6,0.5-1.8,0.7-2.6l1.1-0.1c-0.3,0.9-0.7,2.2-1,2.7L266,155.9z"/>
	<path d="M268.8,153.4c0.3,0.2,0.9,0.5,1.6,0.5c1.2,0,1.6-0.8,1.6-1.4c0-1-0.9-1.4-1.8-1.4h-0.5v-0.7h0.5c0.7,0,1.6-0.4,1.6-1.2
		c0-0.6-0.4-1.1-1.3-1.1c-0.6,0-1.1,0.3-1.4,0.5l-0.3-0.7c0.4-0.3,1.1-0.6,1.9-0.6c1.4,0,2,0.8,2,1.7c0,0.7-0.4,1.4-1.3,1.7v0
		c0.9,0.2,1.6,0.8,1.6,1.8c0,1.1-0.9,2.1-2.6,2.1c-0.8,0-1.5-0.3-1.9-0.5L268.8,153.4z"/>
	<path d="M273.9,155.9c0.2-0.6,0.5-1.8,0.7-2.6l1.1-0.1c-0.3,0.9-0.7,2.2-1,2.7L273.9,155.9z"/>
	<path d="M280.8,148.2h-2.7l-0.3,1.8c0.2,0,0.3,0,0.6,0c0.5,0,1.1,0.1,1.5,0.4c0.6,0.3,1,0.9,1,1.8c0,1.4-1.1,2.4-2.7,2.4
		c-0.8,0-1.4-0.2-1.8-0.4l0.2-0.7c0.3,0.2,0.9,0.4,1.5,0.4c0.9,0,1.7-0.6,1.7-1.6c0-0.9-0.6-1.6-2.1-1.6c-0.4,0-0.7,0-1,0.1l0.5-3.4
		h3.4V148.2z"/>
</g>
<g>
	<g>
		<path class="st13" d="M243.1,101.6c0.5,0.3,1.2,0.5,1.9,0.5c1.1,0,1.7-0.6,1.7-1.4c0-0.8-0.4-1.2-1.5-1.6
			c-1.3-0.5-2.1-1.2-2.1-2.3c0-1.3,1-2.2,2.6-2.2c0.8,0,1.4,0.2,1.8,0.4l-0.3,0.9c-0.3-0.1-0.8-0.4-1.5-0.4c-1.1,0-1.5,0.7-1.5,1.2
			c0,0.8,0.5,1.1,1.6,1.6c1.4,0.5,2.1,1.2,2.1,2.4c0,1.2-0.9,2.3-2.8,2.3c-0.8,0-1.6-0.2-2.1-0.5L243.1,101.6z"/>
		<path class="st13" d="M252.4,102.8l-0.1-0.7h0c-0.3,0.5-0.9,0.9-1.8,0.9c-1.2,0-1.8-0.8-1.8-1.7c0-1.4,1.2-2.2,3.5-2.2V99
			c0-0.5-0.1-1.3-1.3-1.3c-0.5,0-1.1,0.2-1.5,0.4l-0.2-0.7c0.5-0.3,1.2-0.5,1.9-0.5c1.8,0,2.2,1.2,2.2,2.4v2.2c0,0.5,0,1,0.1,1.4
			H252.4z M252.2,99.9c-1.2,0-2.5,0.2-2.5,1.3c0,0.7,0.5,1,1,1c0.8,0,1.2-0.5,1.4-1c0-0.1,0.1-0.2,0.1-0.3V99.9z"/>
		<path class="st13" d="M259.1,102.6c-0.3,0.1-0.9,0.3-1.7,0.3c-1.8,0-2.9-1.2-2.9-3c0-1.8,1.2-3.1,3.1-3.1c0.6,0,1.2,0.2,1.5,0.3
			l-0.2,0.8c-0.3-0.1-0.6-0.3-1.2-0.3c-1.3,0-2.1,1-2.1,2.2c0,1.3,0.9,2.2,2,2.2c0.6,0,1-0.2,1.3-0.3L259.1,102.6z"/>
		<path class="st13" d="M260.3,98.8c0-0.7,0-1.3,0-1.8h0.9l0,1.1h0c0.3-0.8,0.9-1.3,1.6-1.3c0.1,0,0.2,0,0.3,0v1c-0.1,0-0.2,0-0.4,0
			c-0.7,0-1.3,0.6-1.4,1.4c0,0.1,0,0.3,0,0.5v3.1h-1V98.8z"/>
		<path class="st13" d="M264.7,100.1c0,1.4,0.9,2,2,2c0.8,0,1.2-0.1,1.6-0.3l0.2,0.8c-0.4,0.2-1,0.4-1.9,0.4c-1.8,0-2.9-1.2-2.9-2.9
			s1-3.1,2.7-3.1c1.9,0,2.4,1.7,2.4,2.7c0,0.2,0,0.4,0,0.5H264.7z M267.8,99.4c0-0.7-0.3-1.7-1.5-1.7c-1.1,0-1.5,1-1.6,1.7H267.8z"
			/>
		<path class="st13" d="M275.2,94.3v7c0,0.5,0,1.1,0,1.5h-0.9l0-1h0c-0.3,0.6-1,1.1-2,1.1c-1.4,0-2.5-1.2-2.5-3
			c0-1.9,1.2-3.1,2.6-3.1c0.9,0,1.5,0.4,1.8,0.9h0v-3.5H275.2z M274.1,99.4c0-0.1,0-0.3,0-0.4c-0.2-0.7-0.7-1.2-1.5-1.2
			c-1.1,0-1.7,1-1.7,2.2c0,1.2,0.6,2.1,1.7,2.1c0.7,0,1.4-0.5,1.5-1.3c0-0.1,0-0.3,0-0.5V99.4z"/>
		<path class="st13" d="M280.8,102.8l-2.6-8.1h1.1l1.3,4c0.3,1.1,0.6,2.1,0.9,3h0c0.2-0.9,0.6-2,0.9-3l1.4-4h1.1l-2.9,8.1H280.8z"/>
		<path class="st13" d="M288.6,102.8l-0.1-0.7h0c-0.3,0.5-0.9,0.9-1.8,0.9c-1.2,0-1.8-0.8-1.8-1.7c0-1.4,1.2-2.2,3.5-2.2V99
			c0-0.5-0.1-1.3-1.3-1.3c-0.5,0-1.1,0.2-1.5,0.4l-0.2-0.7c0.5-0.3,1.2-0.5,1.9-0.5c1.8,0,2.2,1.2,2.2,2.4v2.2c0,0.5,0,1,0.1,1.4
			H288.6z M288.4,99.9c-1.2,0-2.5,0.2-2.5,1.3c0,0.7,0.5,1,1,1c0.8,0,1.2-0.5,1.4-1c0-0.1,0.1-0.2,0.1-0.3V99.9z"/>
		<path class="st13" d="M291.1,94.3h1.1v8.5h-1.1V94.3z"/>
		<path class="st13" d="M294,94.3h1.1v8.5H294V94.3z"/>
		<path class="st13" d="M297.4,100.1c0,1.4,0.9,2,2,2c0.8,0,1.2-0.1,1.6-0.3l0.2,0.8c-0.4,0.2-1,0.4-1.9,0.4c-1.8,0-2.9-1.2-2.9-2.9
			s1-3.1,2.7-3.1c1.9,0,2.4,1.7,2.4,2.7c0,0.2,0,0.4,0,0.5H297.4z M300.5,99.4c0-0.7-0.3-1.7-1.5-1.7c-1.1,0-1.5,1-1.6,1.7H300.5z"
			/>
		<path class="st13" d="M303.2,97l1.3,3.4c0.1,0.4,0.3,0.8,0.4,1.2h0c0.1-0.3,0.2-0.8,0.4-1.2l1.2-3.4h1.1l-1.6,4.1
			c-0.8,2-1.3,3-2,3.6c-0.5,0.5-1,0.6-1.3,0.7l-0.3-0.9c0.3-0.1,0.6-0.3,0.9-0.5c0.3-0.2,0.6-0.6,0.9-1.2c0-0.1,0.1-0.2,0.1-0.3
			c0-0.1,0-0.1-0.1-0.3L302,97H303.2z"/>
	</g>
</g>
<path class="st11" d="M255.4,127.6h-1c-5.6,0-10.2-4.6-10.2-10.2v0c0-5.6,4.6-10.2,10.2-10.2h1c5.6,0,10.2,4.6,10.2,10.2v0
	C265.7,123,261,127.6,255.4,127.6z"/>
<g>
	<path d="M255.6,120.6v-1.9h-3.3V118l3.2-4.6h1v4.4h1v0.8h-1v1.9H255.6z M255.6,117.9v-2.4c0-0.4,0-0.7,0-1.1h0
		c-0.2,0.4-0.4,0.7-0.6,1.1l-1.7,2.4v0H255.6z"/>
</g>
</svg>
